/* XPM */
static char *result[] = {
/* columns rows colors chars-per-pixel */
"64 64 69 1 ",
"  c black",
". c #010101",
"X c #020202",
"o c gray1",
"O c #040404",
"+ c gray2",
"@ c #101010",
"# c #1D1D1B",
"$ c gray17",
"% c #2D2D2D",
"& c gray18",
"* c #2F2F2F",
"= c gray23",
"- c gray24",
"; c gray25",
": c #414141",
"> c #434343",
", c #474745",
"< c #484846",
"1 c #4B4B4B",
"2 c #555554",
"3 c #555555",
"4 c #585858",
"5 c #5A5A5A",
"6 c #5B5B5B",
"7 c #656565",
"8 c gray40",
"9 c #676767",
"0 c #686868",
"q c DimGray",
"w c gray44",
"e c #717171",
"r c #727272",
"t c gray50",
"y c #818181",
"u c #888888",
"i c #929292",
"p c #939393",
"a c #979797",
"s c #9B9B9B",
"d c gray61",
"f c #9D9D9D",
"g c #9F9F9F",
"h c gray63",
"j c #A2A2A2",
"k c #A5A5A5",
"l c #A9A9A9",
"z c gray68",
"x c gray69",
"c c gray77",
"v c #C5C5C5",
"b c #C6C6C6",
"n c #C7C7C6",
"m c gray86",
"M c #DFDFDF",
"N c #E1E1E1",
"B c #E7E7E7",
"V c #ECECEC",
"C c #EEEEEE",
"Z c #F1F1F1",
"A c gray96",
"S c #F6F6F6",
"D c #F9F9F9",
"F c gray98",
"G c #FBFBFB",
"H c gray99",
"J c #FDFDFD",
"K c #FEFEFE",
"L c white",
/* pixels */
"#,222222222222222222222222222222222222222222222222222222222222<#",
"#bLLLLLLLLLLLLLLLLLLLLLLLLLLLLLLLLLLLLLLLLLLLLLLLLLLLLLLLLLLLLn#",
"#bLLLLLLLLLLLLLLLLLLLLLLLLLLLLLLLLLLLLLLLLLLLLLLLLLLLLLLLLLLLLn#",
"#bLLLLLLLLLLLLLLLLLLLLLLLLLLLLLLLLLLLLLLLLLLLLLLLLLLLLLLLLLLLLn#",
"#bLLLLLLLLLLLLLLLLLLLLLLLLLLLLLLLLLLLLLLLLLLLLLLLLLLLLLLLLLLLLn#",
"#bLLLLLLLLLLLLLLLLLLLLLLLLLLLLLLLLLLLLLLLLLLLLLLLLLLLLLLLLLLLLn#",
"#bLLLLLLLLLLLLLLLLLLLLLLLLLLLLLLLLLLLLLLLLLLLLLLLLLLLLLLLLLLLLn#",
"#bLLLLLLLLLLLLLLLLLLLLLLLLLLLLLLLLLLLLLLLLLLLLLLLLLLLLLLLLLLLLn#",
"#bLLLLLLLLLLLLLLLLLLLLLLLLLLLLLLLLLLLLLLLLLLLLLLLLLLLLLLLLLLLLn#",
"#bLLLLLLLLLLLLu%$$$$$*FLLLLLLLLLLLLLLLLLk&$$$$$=VLLLLLLLLLLLLLn#",
"#bLLLLLLLLLLLLro      DLLLLLLLLLLLLLLLLLpO      MKLLLLLLLLLLLLn#",
"#bLLLLLLLLLLLLeo      DLLLLLLLLLLLLLLLLLpo      MKLLLLLLLLLLLLn#",
"#bLLLLLLLLLLLLeo      DLLLLLLLLLLLLLLLLLpo      MKLLLLLLLLLLLLn#",
"#bLLLLLLLLLLLLeo      tyyyyyyyyyyyyyyyyy@       MKLLLLLLLLLLLLn#",
"#bLLLLLLLLLLLLeo       .................        MKLLLLLLLLLLLLn#",
"#bLLLLLLLLLLLLeo                                MKLLLLLLLLLLLLn#",
"#bLLLLLLLLLLLLeo                                MKLLLLLLLLLLLLn#",
"#bLLLLLLLLLLLLeo                                MKLLLLLLLLLLLLn#",
"#bLLLLLLLLLLLLeo                                MKLLLLLLLLLLLLn#",
"#bLLLLLLLLLLLLeo      lzzzzzzzzzzzzzzzzz1X      MKLLLLLLLLLLLLn#",
"#bLLLLLLLLLLLLeo      DLLLLLLLLLLLLLLLLLio      MKLLLLLLLLLLLLn#",
"#bLLLLLLLLLLLLeo      DLLLLLLLLLLLLLLLLLpo      MKLLLLLLLLLLLLn#",
"#bLLLLLLLLLLLLeo      dggggggggggggggggg4X      MKLLLLLLLLLLLLn#",
"#bLLLLLLLLLLLLeo      ..................        MKLLLLLLLLLLLLn#",
"#bLLLLLLLLLLLLeo                                MKLLLLLLLLLLLLn#",
"#bLLLLLLLLLLLLeo                                MKLLLLLLLLLLLLn#",
"#bLLLLLLLLLLLLeo                                MKLLLLLLLLLLLLn#",
"#bLLLLLLLLLLLLeo                                MKLLLLLLLLLLLLn#",
"#bLLLLLLLLLLLLh65555555555555555555555555555555qZLLLLLLLLLLLLLn#",
"#bLLLLLLLLLLLLLKKKKKKKKKKKKKKKKKKKKKKKKKKKLLLLLLLLLLLLLLLLLLLLn#",
"#bLLLLLLLLLLLLLLLLLLLLLLLLLLLLLLLLLLLLLLLLLLLLLLLLLLLLLLLLLLLLn#",
"#bLLLLLLC3::::::::::::::::::::::::::::::;;;;;;;;;;;;;wGLLLLLLLn#",
"#bLLLLLLb+                                           ;FLLLLLLLn#",
"#bLLLLLLb+                                           ;FLLLLLLLn#",
"#bLLLLLLb+                                           ;FLLLLLLLn#",
"#bLLLLLLb+                                           ;FLLLLLLLn#",
"#bLLLLLLb+                                           >FLLLLLLLn#",
"#bLLLLLLBfsssssssssssssssss-.      asssssssssssssssssbJLLLLLLLn#",
"#bLLLLLLLLLLLLLLLLLLLLLLLLL9X      DLLLLLLLLLLLLLLLLLLLLLLLLLLn#",
"#bLLLLLLLLLLLLLLLLLLLLLLLLL9X      DLLLLLLLLLLLLLLLLLLLLLLLLLLn#",
"#bLLLLLLLLLLLKHHHHHHHHHHHHH8X      SHHHHHHHHHHHJLLLLLLLLLLLLLLn#",
"#bLLLLLLLLLLLxO                                 vKLLLLLLLLLLLLn#",
"#bLLLLLLLLLLLxO                                 jJLLLLLLLLLLLLn#",
"#bLLLLLLLLLLLxO                                 jJLLLLLLLLLLLLn#",
"#bLLLLLLLLLLLxO                                 jJLLLLLLLLLLLLn#",
"#bLLLLLLLLLLLxO                                 jJLLLLLLLLLLLLn#",
"#bLLLLLLLLLLLxO                                 jJLLLLLLLLLLLLn#",
"#bLLLLLLLLLLLANNNNNNNNNNNNNNNNNNNNNNNNNNzO      jJLLLLLLLLLLLLn#",
"#bLLLLLLLLLLLLLLLLLLLLLLLLLLLLLLLLLLLLLLv+      jJLLLLLLLLLLLLn#",
"#bLLLLLLLLLLLLLLLLLLLLLLLLLLLLLLLLLLLLLLv+      jJLLLLLLLLLLLLn#",
"#bLLLLLLLLLLLLLLLLLLLLLLLLLLLLLLLLLLLLLLv+      jJLLLLLLLLLLLLn#",
"#bLLLLLLLLLLLLLLLLLLLLLLLLLLLLLLLLLLLLLLv+      jJLLLLLLLLLLLLn#",
"#bLLLLLLLLLLLLLLLLLLLLLLLLLLLLLLLLLLLLLLv+      jJLLLLLLLLLLLLn#",
"#bLLLLLLLLLLLLLLLLLLLLLLLLLLLLLLLLLLLLLLv+      jJLLLLLLLLLLLLn#",
"#bLLLLLLLLLLLLLLLLLLLLLLLLLLLLLLLLLLLLLLv+      jJLLLLLLLLLLLLn#",
"#bLLLLLLLLLLLLLLLLLLLLLLLLLLLLLLLLLLLLLLv+      jJLLLLLLLLLLLLn#",
"#bLLLLLLLLLLLLLLLLLLLLLLLLLLLLLLLLLLLLLLv+      jJLLLLLLLLLLLLn#",
"#bLLLLLLLLLLLLLLLLLLLLLLLLLLLLLLLLLLLLLLm0777777cJLLLLLLLLLLLLn#",
"#bLLLLLLLLLLLLLLLLLLLLLLLLLLLLLLLLLLLLLLLLLLLLLLLLLLLLLLLLLLLLn#",
"#bLLLLLLLLLLLLLLLLLLLLLLLLLLLLLLLLLLLLLLLLLLLLLLLLLLLLLLLLLLLLn#",
"#bLLLLLLLLLLLLLLLLLLLLLLLLLLLLLLLLLLLLLLLLLLLLLLLLLLLLLLLLLLLLn#",
"#bLLLLLLLLLLLLLLLLLLLLLLLLLLLLLLLLLLLLLLLLLLLLLLLLLLLLLLLLLLLLn#",
"#bLLLLLLLLLLLLLLLLLLLLLLLLLLLLLLLLLLLLLLLLLLLLLLLLLLLLLLLLLLLLn#",
"#,222222222222222222222222222222222222222222222222222222222222<#"
};
