/* XPM */
static char *result[] = {
/* columns rows colors chars-per-pixel */
"64 64 141 2 ",
"   c black",
".  c #010101",
"X  c #020202",
"o  c gray1",
"O  c #040404",
"+  c gray2",
"@  c #060606",
"#  c #070707",
"$  c gray3",
"%  c #090909",
"&  c gray4",
"*  c #0C0C0C",
"=  c gray5",
"-  c #0E0E0E",
";  c #101010",
":  c #111111",
">  c gray7",
",  c #131313",
"<  c gray8",
"1  c #151515",
"2  c #191919",
"3  c #1D1D1B",
"4  c gray11",
"5  c gray12",
"6  c #232323",
"7  c #252525",
"8  c #282828",
"9  c gray18",
"0  c #313131",
"q  c #323232",
"w  c gray22",
"e  c gray24",
"r  c #3E3E3E",
"t  c gray25",
"y  c gray26",
"u  c gray27",
"i  c #474745",
"p  c gray28",
"a  c #484846",
"s  c #4C4C4C",
"d  c gray30",
"f  c gray31",
"g  c #515151",
"h  c gray33",
"j  c #555554",
"k  c gray34",
"l  c #5B5B5B",
"z  c #5D5D5D",
"x  c gray37",
"c  c #606060",
"v  c #656565",
"b  c gray40",
"n  c DimGray",
"m  c #6A6A6A",
"M  c gray44",
"N  c #747474",
"B  c gray46",
"V  c #767676",
"C  c #797979",
"Z  c #7B7B7B",
"A  c gray49",
"S  c #808080",
"D  c #818181",
"F  c gray51",
"G  c #838383",
"H  c #848484",
"J  c gray52",
"K  c #868686",
"L  c gray53",
"P  c #888888",
"I  c gray54",
"U  c #8B8B8B",
"Y  c gray55",
"T  c gray56",
"R  c gray57",
"E  c #959595",
"W  c #979797",
"Q  c gray60",
"!  c #9A9A9A",
"~  c gray61",
"^  c gray62",
"/  c #9F9F9F",
"(  c gray63",
")  c #A2A2A2",
"_  c gray64",
"`  c #A4A4A4",
"'  c #A5A5A5",
"]  c #A7A7A7",
"[  c #A9A9A9",
"{  c gray67",
"}  c #AEAEAE",
"|  c #B2B2B2",
" . c #B4B4B4",
".. c #B6B6B6",
"X. c #B9B9B9",
"o. c gray75",
"O. c #C1C1C1",
"+. c gray76",
"@. c #C6C6C6",
"#. c #C7C7C6",
"$. c #C8C8C8",
"%. c #CDCDCD",
"&. c #CECECE",
"*. c gray81",
"=. c LightGray",
"-. c gray83",
";. c #D5D5D5",
":. c gray84",
">. c #D8D8D8",
",. c gray85",
"<. c #DADADA",
"1. c gray86",
"2. c gainsboro",
"3. c gray87",
"4. c #E1E1E1",
"5. c #E2E2E2",
"6. c gray89",
"7. c #E4E4E4",
"8. c gray90",
"9. c #E6E6E6",
"0. c #E7E7E7",
"q. c gray91",
"w. c #E9E9E9",
"e. c gray92",
"r. c gray93",
"t. c #EEEEEE",
"y. c #EFEFEF",
"u. c gray94",
"i. c #F3F3F3",
"p. c #F4F4F4",
"a. c gray96",
"s. c #F6F6F6",
"d. c gray97",
"f. c #F8F8F8",
"g. c #F9F9F9",
"h. c gray98",
"j. c #FBFBFB",
"k. c gray99",
"l. c #FDFDFD",
"z. c #FEFEFE",
"x. c white",
/* pixels */
"3 i j j j j j j j j j j j j j j j j j j j j j j j j j j j j j j j j j j j j j j j j j j j j j j j j j j j j j j j j j j j j a 3 ",
"3 @.x.x.x.x.x.x.x.x.x.x.x.x.x.x.x.x.x.x.x.x.x.x.x.x.x.x.x.x.x.x.x.x.x.x.x.x.x.x.x.x.x.x.x.x.x.x.x.x.x.x.x.x.x.x.x.x.x.x.x.x.#.3 ",
"3 @.x.x.x.x.x.x.x.x.x.x.x.x.x.x.x.x.x.x.x.x.x.x.x.x.x.x.x.x.x.x.x.x.x.x.x.x.x.x.x.x.x.x.x.x.x.x.x.x.x.x.x.x.x.x.x.x.x.x.x.x.#.3 ",
"3 @.x.x.x.x.x.x.x.x.x.x.x.x.x.x.x.x.x.x.x.x.x.x.x.x.x.x.x.x.x.x.x.x.x.x.x.x.x.x.x.x.x.x.x.x.x.x.x.x.x.x.x.x.x.x.x.x.x.x.x.x.#.3 ",
"3 @.x.x.x.x.x.x.x.x.x.x.x.x.x.x.x.x.x.x.x.x.x.x.x.x.x.x.x.x.x.x.x.x.x.x.x.x.x.x.x.x.x.x.x.x.x.x.x.x.x.x.x.x.x.x.x.x.x.x.x.x.#.3 ",
"3 @.x.x.x.x.x.x.x.x.x.x.x.x.x.x.x.x.x.x.x.x.x.x.x.x.x.x.x.x.x.x.x.x.x.x.x.x.x.x.x.x.x.x.x.x.x.x.x.x.x.x.x.x.x.x.x.x.x.x.x.x.#.3 ",
"3 @.x.x.x.x.x.x.x.x.x.x.x.x.x.x.x.x.x.x.x.x.x.x.x.x.x.x.x.x.x.x.x.x.x.x.x.x.x.x.x.x.x.x.x.x.x.x.x.x.x.x.x.x.x.x.x.x.x.x.x.x.#.3 ",
"3 @.x.x.x.x.x.x.x.x.x.x.x.x.x.x.x.x.x.x.x.x.x.x.x.x.x.x.x.x.x.x.x.x.x.x.x.x.x.x.x.x.x.x.x.x.x.x.x.x.x.x.x.x.x.x.x.x.x.x.x.x.#.3 ",
"3 @.x.x.x.x.x.x.x.x.x.x.x.x.x.x.x.x.x.x.x.x.x.x.x.x.x.x.x.x.x.x.x.x.x.x.x.x.x.x.x.x.x.x.x.x.x.x.x.x.x.x.x.x.x.x.x.x.x.x.x.x.#.3 ",
"3 @.x.x.x.x.x.x.x.x.x.x.x.x.x.k.a.p.p.p.p.p.p.p.p.p.p.p.p.p.p.p.p.p.p.p.p.p.p.p.p.p.p.p.p.p.p.p.p.h.x.x.x.x.x.x.x.x.x.x.x.x.#.3 ",
"3 @.x.x.x.x.x.x.x.x.x.x.x.x.x.m $ . . . . . . . . . . . . . . . . . . . . . . . . . . . . . . . . F s.x.x.x.x.x.x.x.x.x.x.x.#.3 ",
"3 @.x.x.x.x.x.x.x.x.x.x.x.x.x.y O                                                                 D s.x.x.x.x.x.x.x.x.x.x.x.#.3 ",
"3 @.x.x.x.x.x.x.x.x.x.x.x.x.x.y O                                                                 D s.x.x.x.x.x.x.x.x.x.x.x.#.3 ",
"3 @.x.x.x.x.x.x.x.x.x.x.x.x.x.y O                                                                 D s.x.x.x.x.x.x.x.x.x.x.x.#.3 ",
"3 @.x.x.x.x.x.x.x.x.x.x.x.x.x.y O                                                                 D s.x.x.x.x.x.x.x.x.x.x.x.#.3 ",
"3 @.x.x.x.x.x.x.x.x.x.x.x.x.x.y O                                                                 Q f.x.x.x.x.x.x.x.x.x.x.x.#.3 ",
"3 @.x.x.x.x.x.x.x.x.x.x.x.x.x.y O           5 &.2.2.2.2.2.2.2.2.2.2.2.2.2.2.2.2.2.2.2.2.2.2.2.2.3.k.x.x.x.x.x.x.x.x.x.x.x.x.#.3 ",
"3 @.x.x.x.x.x.x.x.x.x.x.x.x.x.y O           e u.x.x.x.x.x.x.x.x.x.x.x.x.x.x.x.x.x.x.x.x.x.x.x.x.x.x.x.x.x.x.x.x.x.x.x.x.x.x.#.3 ",
"3 @.x.x.x.x.x.x.x.x.x.x.x.x.x.y O           e u.x.x.x.x.x.x.x.x.x.x.x.x.x.x.x.x.x.x.x.x.x.x.x.x.x.x.x.x.x.x.x.x.x.x.x.x.x.x.#.3 ",
"3 @.x.x.x.x.x.x.x.x.x.x.x.x.x.y O           e u.x.x.x.x.x.x.x.x.x.x.x.x.x.x.x.x.x.x.x.x.x.x.x.x.x.x.x.x.x.x.x.x.x.x.x.x.x.x.#.3 ",
"3 @.x.x.x.x.x.x.x.x.x.x.x.x.x.y O           e u.x.x.x.x.x.x.x.x.x.x.x.x.x.x.x.x.x.x.x.x.x.x.x.x.x.x.x.x.x.x.x.x.x.x.x.x.x.x.#.3 ",
"3 @.x.x.x.x.x.x.x.x.x.x.x.x.x.y O           * g k k k k k k k k k k k k k k k k k k k k k k k k k S a.x.x.x.x.x.x.x.x.x.x.x.#.3 ",
"3 @.x.x.x.x.x.x.x.x.x.x.x.x.x.y O                                                                 t u.x.x.x.x.x.x.x.x.x.x.x.#.3 ",
"3 @.x.x.x.x.x.x.x.x.x.x.x.x.x.y O                                                                 t u.x.x.x.x.x.x.x.x.x.x.x.#.3 ",
"3 @.x.x.x.x.x.x.x.x.x.x.x.x.x.y O                                                                 t u.x.x.x.x.x.x.x.x.x.x.x.#.3 ",
"3 @.x.x.x.x.x.x.x.x.x.x.x.x.x.y O                                                                 t u.x.x.x.x.x.x.x.x.x.x.x.#.3 ",
"3 @.x.x.x.x.x.x.x.x.x.x.x.x.x.y O                                                                 t u.x.x.x.x.x.x.x.x.x.x.x.#.3 ",
"3 @.x.x.x.x.x.x.x.x.x.x.x.x.x.' L J J J J J J J J J J J u +             M J J J J J J J K K K K K ` f.x.x.x.x.x.x.x.x.x.x.x.#.3 ",
"3 @.x.x.x.x.x.x.x.x.x.x.x.x.x.x.x.x.x.x.x.x.x.x.x.x.x.x.I &             :.l.x.x.x.x.x.x.x.x.x.x.x.x.x.x.x.x.x.x.x.x.x.x.x.x.#.3 ",
"3 @.x.x.x.x.x.x.x.x.x.x.x.x.x.x.x.x.x.x.x.x.x.x.x.x.x.x.I &             :.l.x.x.x.x.x.x.x.x.x.x.x.x.x.x.x.x.x.x.x.x.x.x.x.x.#.3 ",
"3 @.x.x.x.x.x.x.x.l.d.d.d.d.d.d.d.d.d.d.d.d.d.d.d.d.d.d.H &             *.a.d.d.d.d.d.d.d.d.d.d.d.d.d.d.d.d.f.z.x.x.x.x.x.x.#.3 ",
"3 @.x.x.x.x.x.x.x.;.: . . . . . . . . . . . . . . . . . .               . . . .                             9 y.x.x.x.x.x.x.#.3 ",
"3 @.x.x.x.x.x.x.x.;.;                                                                                       9 y.x.x.x.x.x.x.#.3 ",
"3 @.x.x.x.x.x.x.x.;.;                                                                                       9 y.x.x.x.x.x.x.#.3 ",
"3 @.x.x.x.x.x.x.x.;.;                                                                                       9 y.x.x.x.x.x.x.#.3 ",
"3 @.x.x.x.x.x.x.x.;.;                                                                                       9 y.x.x.x.x.x.x.#.3 ",
"3 @.x.x.x.x.x.x.x.6.>                                                                                       9 y.x.x.x.x.x.x.#.3 ",
"3 @.x.x.x.x.x.x.x.x.q.2.1.1.1.1.1.1.1.1.1.1.1.1.1.1.1.1.1.1.1.1.1.1.1.1.1.1.1.1.1.1.1.1.1.1.1.1.1.1.1.1.1.1.4.l.x.x.x.x.x.x.#.3 ",
"3 @.x.x.x.x.x.x.x.x.x.x.x.x.x.x.x.x.x.x.x.x.x.x.x.x.x.x.x.x.x.h.f.z.x.x.x.x.x.x.x.x.x.x.x.x.x.x.x.x.x.x.x.x.x.x.x.x.x.x.x.x.#.3 ",
"3 @.x.x.x.x.x.x.x.x.x.x.x.x.x.x.x.x.x.x.x.x.x.5.[ S z w 2 - .       * 1 8 s N ! $.g.x.x.x.x.x.x.x.x.x.x.x.x.x.x.x.x.x.x.x.x.#.3 ",
"3 @.x.x.x.x.x.x.x.x.x.x.x.x.x.x.x.x.x.x.1.Z 6 X                                   * l | g.x.x.x.x.x.x.x.x.x.x.x.x.x.x.x.x.x.#.3 ",
"3 @.x.x.x.x.x.x.x.x.x.x.x.x.x.x.x.x.3.h @                                               9 [ g.x.x.x.x.x.x.x.x.x.x.x.x.x.x.x.#.3 ",
"3 @.x.x.x.x.x.x.x.x.x.x.x.x.x.x.x.( *                                                       x e.z.x.x.x.x.x.x.x.x.x.x.x.x.x.#.3 ",
"3 @.x.x.x.x.x.x.x.x.x.x.x.x.x.x.` *                                                           p y.x.x.x.x.x.x.x.x.x.x.x.x.x.#.3 ",
"3 @.x.x.x.x.x.x.x.x.x.x.x.x.x.:.:                             * = .                             D s.x.x.x.x.x.x.x.x.x.x.x.x.#.3 ",
"3 @.x.x.x.x.x.x.x.x.x.x.x.x.x.m #                 f Y O.9.p.l.x.x.x.g.t.-.) n 4 X               * 8.z.x.x.x.x.x.x.x.x.x.x.x.#.3 ",
"3 @.x.x.x.x.x.x.x.x.x.x.x.x.z.<               u =.l.x.x.x.x.x.x.x.x.x.x.x.x.x.i.A %               } h.x.x.x.x.x.x.x.x.x.x.x.#.3 ",
"3 @.x.x.x.x.x.x.x.x.x.x.x.x.0.>             < w.x.x.x.x.x.x.x.x.x.x.x.x.x.x.x.x.x.v #             R d.x.x.x.x.x.x.x.x.x.x.x.#.3 ",
"3 @.x.x.x.x.x.x.x.x.x.x.x.x.,.:             t u.x.x.x.x.x.x.x.x.x.x.x.x.x.x.x.x.x.T &             G s.x.x.x.x.x.x.x.x.x.x.x.#.3 ",
"3 @.x.x.x.x.x.x.x.x.x.x.x.x.y.,               %.k.x.x.x.x.x.x.x.x.x.x.x.x.x.x.x.a.r O             ^ f.x.x.x.x.x.x.x.x.x.x.x.#.3 ",
"3 @.x.x.x.x.x.x.x.x.x.x.x.x.x.8 X               F 0.z.x.x.x.x.x.x.x.x.x.x.x.g...8 X               +.j.x.x.x.x.x.x.x.x.x.x.x.#.3 ",
"3 @.x.x.x.x.x.x.x.x.x.x.x.x.x.T &                   6 c P W _ { ) ] ~ T N e O                   w u.x.x.x.x.x.x.x.x.x.x.x.x.#.3 ",
"3 @.x.x.x.x.x.x.x.x.x.x.x.x.x.u.q o                                                             ..h.x.x.x.x.x.x.x.x.x.x.x.x.#.3 ",
"3 @.x.x.x.x.x.x.x.x.x.x.x.x.x.x.>.7 X                                                         ^ f.x.x.x.x.x.x.x.x.x.x.x.x.x.#.3 ",
"3 @.x.x.x.x.x.x.x.x.x.x.x.x.x.x.x.0.d +                                                   5 ..h.x.x.x.x.x.x.x.x.x.x.x.x.x.x.#.3 ",
"3 @.x.x.x.x.x.x.x.x.x.x.x.x.x.x.x.x.x.o.u +                                           5 L r.z.x.x.x.x.x.x.x.x.x.x.x.x.x.x.x.#.3 ",
"3 @.x.x.x.x.x.x.x.x.x.x.x.x.x.x.x.x.x.x.x.<.W d @                               0 B X.f.x.x.x.x.x.x.x.x.x.x.x.x.x.x.x.x.x.x.#.3 ",
"3 @.x.x.x.x.x.x.x.x.x.x.x.x.x.x.x.x.x.x.x.x.x.x.l.7.+./ U D V m b M C G E  .-.i.z.x.x.x.x.x.x.x.x.x.x.x.x.x.x.x.x.x.x.x.x.x.#.3 ",
"3 @.x.x.x.x.x.x.x.x.x.x.x.x.x.x.x.x.x.x.x.x.x.x.x.x.x.x.x.x.x.x.x.x.x.x.x.x.x.x.x.x.x.x.x.x.x.x.x.x.x.x.x.x.x.x.x.x.x.x.x.x.#.3 ",
"3 @.x.x.x.x.x.x.x.x.x.x.x.x.x.x.x.x.x.x.x.x.x.x.x.x.x.x.x.x.x.x.x.x.x.x.x.x.x.x.x.x.x.x.x.x.x.x.x.x.x.x.x.x.x.x.x.x.x.x.x.x.#.3 ",
"3 @.x.x.x.x.x.x.x.x.x.x.x.x.x.x.x.x.x.x.x.x.x.x.x.x.x.x.x.x.x.x.x.x.x.x.x.x.x.x.x.x.x.x.x.x.x.x.x.x.x.x.x.x.x.x.x.x.x.x.x.x.#.3 ",
"3 @.x.x.x.x.x.x.x.x.x.x.x.x.x.x.x.x.x.x.x.x.x.x.x.x.x.x.x.x.x.x.x.x.x.x.x.x.x.x.x.x.x.x.x.x.x.x.x.x.x.x.x.x.x.x.x.x.x.x.x.x.#.3 ",
"3 @.x.x.x.x.x.x.x.x.x.x.x.x.x.x.x.x.x.x.x.x.x.x.x.x.x.x.x.x.x.x.x.x.x.x.x.x.x.x.x.x.x.x.x.x.x.x.x.x.x.x.x.x.x.x.x.x.x.x.x.x.#.3 ",
"3 i j j j j j j j j j j j j j j j j j j j j j j j j j j j j j j j j j j j j j j j j j j j j j j j j j j j j j j j j j j j j a 3 "
};
