/* XPM */
static char *result[] = {
/* columns rows colors chars-per-pixel */
"64 64 88 1 ",
"  c #1F201F",
". c #252324",
"X c #282827",
"o c #2A2B2A",
"O c #312F2F",
"+ c #353635",
"@ c #393737",
"# c #383837",
"$ c #393738",
"% c #3B3B3B",
"& c #444544",
"* c #484846",
"= c #474A48",
"- c #4C4C4B",
"; c #4F4F51",
": c #4E5250",
"> c #535453",
", c #555855",
"< c #575759",
"1 c #565959",
"2 c #5B5C5C",
"3 c #605D5D",
"4 c #5D605F",
"5 c #62625E",
"6 c #5E5F62",
"7 c #5D6161",
"8 c #646563",
"9 c #686765",
"0 c #656B66",
"q c #6A6966",
"w c #666768",
"e c #666A69",
"r c #6C6D6B",
"t c #716C6C",
"y c #6E706C",
"u c #71726F",
"i c #6F6E70",
"p c #6E7273",
"a c #6F7478",
"s c #737473",
"d c #797675",
"f c #747975",
"g c #797977",
"h c #737579",
"j c #757A7A",
"k c #7A7A79",
"l c #7F827F",
"z c #7F887B",
"x c #81857E",
"c c #81887E",
"v c #7E8282",
"b c #848684",
"n c #858985",
"m c #868989",
"M c #8C8D8D",
"N c #8D908F",
"B c #91928F",
"V c #8E8F90",
"C c #8E9292",
"Z c #949594",
"A c #989693",
"S c #969996",
"D c #9A9B96",
"F c #9A9799",
"G c #969A99",
"H c #9C9D9C",
"J c #A19E9D",
"K c #9DA09E",
"L c #A4A39E",
"P c #9C9FA0",
"I c #A09EA0",
"U c #9EA2A1",
"Y c #9FA8A7",
"T c #A3A4A3",
"R c #A8A5A4",
"E c #A6A9A5",
"W c #AAABA5",
"Q c #A4A7A8",
"! c #A8A7A9",
"~ c #A6A9A9",
"^ c #ABABAA",
"/ c #B0ACA7",
"( c #AFAEB1",
") c #B2B2B4",
"_ c #B5B5B8",
"` c #B7B9B9",
"' c #BABABB",
"] c None",
/* pixels */
"dZZDI))_(!!!!!!!!!!Q!!T!))^^^KB5uZFZT))_^^^Q^!!!!Q!!!!!^^_^^^KZ5",
"pT/_'''_)()))((())))()))`''``^H*eT/_''__))()((())))))(()''```^H-",
"8F^^!IJFHIPHPPHHJPPJPHHUTTUKKBk+2F^^^THFFUIJPPHHHJPPKHHLTTUKKBf#",
"iP^QIFFFIITTTTTTJTTTTTTTEEKKSSk#9T~QIFFFJTTJIQTTTTTIUTTREQKKDSk#",
"6shhitsddddddkkdkddddkkkjljjfy8+<iddirsddddddkkkdddddkkklkffsy8+",
"=;;;;-;>>>><>>>>>>>>>>>>,:::=-=o&>;;;-;;>>>>>>>>>>><>>>>:>::--=X",
"+.XooooooooooOooOooOoooooooXo++.+.XooooooooOOooooooOoOoooooXX++ ",
"-O$$$$%%%%%%%%%%%%%%%%%$#%#%##-o*O$$$%%%%%%%%%%%%%%%%%@@#%%%+#-X",
"u-9rqryytsuussstuuuuusiirppprey&q-9rqrryutsiiiiistssisitppppeep%",
"/qrssssfddddddkkdddkkdkkjjjjavW0RqtsusfsfkkdkkkkdddddkkkjjjjpvQ4",
"^dDLLEEEW^^//^^^/^^/^/^/^^YYYT!0LdFLYEWW^/W^//^^^^//^^^^~^QYYYQ,",
"L5lkllczcnbbbnnbbbbnnbnbmnvjpnQ8J9klzzzzcbnnbbnmcbbbnbnmmbvjpnQ,",
"WdJLEEWW^/^^/(^/^^^/^^(^~~~YUTT0LuJRR/WWW/^^/(/^//^/^^/^^^QYKUQ,",
"Lqdlllczcbbbbbbbbbncbbbmmmvjpn!0J5dklxcccbbnbnbbbbbnbbmmvbvjpnQ,",
"RdJLREEEWW^W!^^^W!W!^^^^~~YTHH(eLtJRR^RLW^EEW^W^E^^W!^^~~~ETHK(4",
"/tkklkdfdkkdkkkkkkkkkkkkjjaieb^eLtklgkdkddkkkkkkkdkkkkkvjjaaelW4",
"/tALDJJDKKHLHPPHHPKHHUHHHPPPGG^0LdAJDKHHKKPHHHHKKHHHHPJHHPPPGG~1",
"L9tuuussffffdkkjkdffdkkkjhhjavU8J5ruusssfkdfkkkjfkkkfjkkkhjjpvU,",
"L5MBZZSZSSSSSGGZSSSSSSFGGGGZCCH4B5mZZZZSZSSSSSFSSSSSSGSHFZGGCCG:",
"D3tdssfffffffffffffffhfffaai8jU7D5tsfssffffffffffffffffffsaiwjU<",
"LdJRWWWWW^^^^^^^^^^^^^^^(QQQHK(eLdJLRWWWE^^^^^^^E^^^^^^^~~QYHP(2",
"/tggdkfffddddkkkkkdkfkkkjhaiel(eLtdklksfffdkjkdklfddkkdkjjpprv^2",
"/uAHDHHHKHHHHHHHKHHHHHHHPGPHSF!0LuJJDJHHHHHHHHHHKHHHKKHHGPKHZHW2",
"R5tusssffkkkkkkhfkdkkkkkjjjjfvK8J5ttussffkkkkkkjffkkgkdkkjjjavU,",
"J5MBSZSSSSKSSGGGDKSKSGGGFGGGCZG6A5nAAAAZSKSSSGGGSSHSGSGGHGGZCZP;",
"L3tusssfufpffsffuffppfdfffar0kU8A5tdudsfusffpfffpffffffdfhaiwjU>",
"/dJRRREEEWEE^^^^EEEE!^^^^~QUHK(eLdJRTWEEW^WW~E^WEE^E!!^!QQQIHK(2",
"/tkklkffffflkkkkkfflkkkkjhaaev(eLtdklkdffkjklfkkflkkjkkkkjharv^2",
"RtAJJDHKKHHHKPHHKKKKHLHHPPPPGG!0LdAJDJHHKHHKHHKHKKHHHPIHGPPPGG!2",
"L9tuuussfkffdkkhfffffkkkkhjjavU8J5ruusssfffkdkjfffkkfkkkjjjjavK,",
"L9cAAZAZSSSSSSGSSSSSSSSGFZGZNGG7B5mZZZZSCSSSHSSSSSSSSSGZGGGZCCH:",
"D3tdduffffffffffffffffhhfsai7jU7D5rdfssffffffffffffffhhfhfar0kU,",
"RdJREEQQW^^^^^^^W/^^^^^^~~QUHH(eLtJRR/WW^^^^^^^^^^^^^^^^^!YYPP^2",
"/tggdlfffkddfkkjkdkdkjdkjjaarb^eLtggkkddffddfkkkdkkdfkkkjjairv^2",
"RdADDJHHHHJHHHHHKKKHHKHHHPUHZF^0LdAJDHDHKKGKHKHHKKHHHKKSHPPPSF^2",
"L5uuusaffkkkkkkjffkkkdjjkjjjavU7J5tuussffffzkkkkfkkkfjflkkhjavU,",
"L5MASSSGSHSKHHSGHKSSKSSKHHGGCGG6ZwmZASSSSKSSSHFGSDKKSSKKHHGGCCH:",
"B,89e7ee0000000000000y0eerew7sV2M>8eqeery0000ee00000000yeerw7fZ-",
"m<dkllvvvvzvvnbvvnvvvvvvnnvvhvm>x,hkjvvvvvvvvnbbnvvnvvvvnnvkjvm=",
"k=-<1477777777767777777747222wk-s=:1116777777777477747774762<wj&",
"s:0dvbbvmMVVVVVVCCCMCCVCmnMMbbs&r:ekbvbvmVMVVCCVVMMVMCVVnnMMmbs%",
"2>2222212222668244222666267622>&2:22222<2262266222626668267722<%",
"]]]]]]]]]]]]]]]]]]]]]]]]]]]]]]]]]]]]]]]]]]]]]]]]]]]]]]]]]]]]]]]]",
"]]]]]]]]]]]]]]]]]]]]]]]]]]]]]]]]]]]]]]]]]]]]]]]]]]]]]]]]]]]]]]]]",
"]]]]]]]]]]]]]]]]]]]]]]]]]]]]]]]]]]]]]]]]]]]]]]]]]]]]]]]]]]]]]]]]",
"]]]]]]]]]]]]]]]]]]]]]]]]]]]]]]]]]]]]]]]]]]]]]]]]]]]]]]]]]]]]]]]]",
"]]]]]]]]]]]]]]]]]]]]]]]]]]]]]]]]]]]]]]]]]]]]]]]]]]]]]]]]]]]]]]]]",
"]]]]]]]]]]]]]]]]]]]]]]]]]]]]]]]]]]]]]]]]]]]]]]]]]]]]]]]]]]]]]]]]",
"]]]]]]]]]]]]]]]]]]]]]]]]]]]]]]]]]]]]]]]]]]]]]]]]]]]]]]]]]]]]]]]]",
"]]]]]]]]]]]]]]]]]]]]]]]]]]]]]]]]]]]]]]]]]]]]]]]]]]]]]]]]]]]]]]]]",
"]]]]]]]]]]]]]]]]]]]]]]]]]]]]]]]]]]]]]]]]]]]]]]]]]]]]]]]]]]]]]]]]",
"]]]]]]]]]]]]]]]]]]]]]]]]]]]]]]]]]]]]]]]]]]]]]]]]]]]]]]]]]]]]]]]]",
"]]]]]]]]]]]]]]]]]]]]]]]]]]]]]]]]]]]]]]]]]]]]]]]]]]]]]]]]]]]]]]]]",
"]]]]]]]]]]]]]]]]]]]]]]]]]]]]]]]]]]]]]]]]]]]]]]]]]]]]]]]]]]]]]]]]",
"]]]]]]]]]]]]]]]]]]]]]]]]]]]]]]]]]]]]]]]]]]]]]]]]]]]]]]]]]]]]]]]]",
"]]]]]]]]]]]]]]]]]]]]]]]]]]]]]]]]]]]]]]]]]]]]]]]]]]]]]]]]]]]]]]]]",
"]]]]]]]]]]]]]]]]]]]]]]]]]]]]]]]]]]]]]]]]]]]]]]]]]]]]]]]]]]]]]]]]",
"]]]]]]]]]]]]]]]]]]]]]]]]]]]]]]]]]]]]]]]]]]]]]]]]]]]]]]]]]]]]]]]]",
"]]]]]]]]]]]]]]]]]]]]]]]]]]]]]]]]]]]]]]]]]]]]]]]]]]]]]]]]]]]]]]]]",
"]]]]]]]]]]]]]]]]]]]]]]]]]]]]]]]]]]]]]]]]]]]]]]]]]]]]]]]]]]]]]]]]",
"]]]]]]]]]]]]]]]]]]]]]]]]]]]]]]]]]]]]]]]]]]]]]]]]]]]]]]]]]]]]]]]]",
"]]]]]]]]]]]]]]]]]]]]]]]]]]]]]]]]]]]]]]]]]]]]]]]]]]]]]]]]]]]]]]]]",
"]]]]]]]]]]]]]]]]]]]]]]]]]]]]]]]]]]]]]]]]]]]]]]]]]]]]]]]]]]]]]]]]",
"]]]]]]]]]]]]]]]]]]]]]]]]]]]]]]]]]]]]]]]]]]]]]]]]]]]]]]]]]]]]]]]]"
};
