/* XPM */
static char *result[] = {
/* columns rows colors chars-per-pixel */
"64 64 88 1 ",
"  c #1F201F",
". c #252324",
"X c #282827",
"o c #2A2B2A",
"O c #312F2F",
"+ c #353635",
"@ c #393737",
"# c #383837",
"$ c #393738",
"% c #3B3B3B",
"& c #444544",
"* c #484846",
"= c #474A48",
"- c #4C4C4B",
"; c #4F4F51",
": c #4E5250",
"> c #535453",
", c #555855",
"< c #575759",
"1 c #565959",
"2 c #5B5C5C",
"3 c #605D5D",
"4 c #5D605F",
"5 c #62625E",
"6 c #5E5F62",
"7 c #5D6161",
"8 c #656563",
"9 c #686765",
"0 c #656A66",
"q c #6A6966",
"w c #666768",
"e c #666A69",
"r c #6C6D6B",
"t c #716D6D",
"y c #6E706C",
"u c #71726F",
"i c #6F6E70",
"p c #6E7273",
"a c #6F7478",
"s c #737473",
"d c #797675",
"f c #747975",
"g c #797977",
"h c #737679",
"j c #757A7A",
"k c #7A7A79",
"l c #7F827F",
"z c #7F887B",
"x c #81857E",
"c c #81887E",
"v c #7E8281",
"b c #848684",
"n c #858985",
"m c #868989",
"M c #8C8D8C",
"N c #8D908F",
"B c #91928F",
"V c #8E8F90",
"C c #8E9292",
"Z c #949594",
"A c #999794",
"S c #969996",
"D c #9A9B96",
"F c #9A9799",
"G c #969A99",
"H c #9C9D9D",
"J c #A19E9D",
"K c #9DA09E",
"L c #A4A39E",
"P c #9C9FA0",
"I c #A09EA0",
"U c #9EA2A1",
"Y c #9FA8A7",
"T c #A3A4A3",
"R c #A8A5A4",
"E c #A6AAA5",
"W c #AAABA5",
"Q c #A4A7A8",
"! c #A8A7A9",
"~ c #A6A9AA",
"^ c #ABABAA",
"/ c #B0ACA7",
"( c #AFAEB1",
") c #B2B2B4",
"_ c #B5B5B8",
"` c #B7B9B9",
"' c #BABABB",
"] c None",
/* pixels */
"dZZDI))_(!!!^!!!^!^!^!!!^_^^^KB5uZZDT((_(!!Q^!!!!!!^~!!!^_E(^KZ5",
"pT/_'''_)()()((((())(((('''``WH=eT^_''`_))))(((())(()(()'''``!D-",
"8F^^!IJFPPIHPPHHHHJIPPHTTTUKKNl+2F!(^THFHHIIPPJHJHPPKHHJETUKKBk#",
"iP^QIFFFIITTTTTTTTTTITTTEEKKKBk#9T^TIFFFJTTIITTTTTTTTTTETEKKKZk#",
"6shdirdsdddddkkdddddkkkkjljjfy7+<hdduriddddddkkddddddkkkjlffuu5#",
"=;;;;-;>>>>>>>>>>>>>>>>>,:::=-=o&;;;;-;>>>>>><>>>><<>>>>,:::=-*X",
"+.XooooooooooOooOooOoooooooXoO#.O.ooooooOooooooooooooOooooooX+# ",
"-O$$$$%%%%%%%%%%%%%%%%%$#%#%##-O*O$$$$%%%%%%%%%%%%%%%%@@#%%#+#-X",
"u-9rqryyttuuuuiuutstustirpypr0y&t-9retryuuuitsuitsttstiirappeep%",
"/qyuussfkkgdkkkkdkgggdkkkjhjab~0R9ttusfsfgggdkkkgkkkkkkdjhjjpv~4",
"/sJLTEEEW/W/^/!!/^^^^^^/^^QYYT~0LdHLTEEWR/^W/^!^^W//^^^^^^YYUQE,",
"L9kklxccbnnnbbmbcnnnnnbbmmvhanT0LqkkzzzccnnnnnmnnnbbbbbmmnvjpnY1",
"WdLLEE^W/^/^//(!^^//^/^^^^YYUU~8LuJRRWWW/^^//^^///^/^^/^^^QYUYE,",
"L5glllzzcbnbbmbbcbnbnnmnvmvjpbE0J5kklxcccnbbnnnncnbnnnmmvnvhpvE,",
"RdJLRWEEWW!!^^/!W^!!!^^!~~~YHH(eLdJRR/RLW!W~^!^WWW!!~^^^^~QTHK(4",
"/tkkkkkffkkkkkkkkkkkkkkkjhaarb^eLtdkkkkfdgkkkkkkkkkkkkkjjjaarvE4",
"RdALJJDDKKHHJKPHTHKHHUHHHPPPSH~0LdAJHHHHKKHKPHPHKPHJKHPHHPPPZH~1",
"L5quuussffgfgkhggfgggfkkjkhjavU8J5ruusssfgjggkkhfgfggkkkjhjjpvU,",
"J5MBZZDZSSSSSSGSSSSZSGGGGGGGNZP4B5mBZZZSZZZSDZGSSSGSSSGGFGGSCCG>",
"L3tdfssfpfffffsfffffffhspaar7jU7D5usdsfufffffgfffffffhsdfsarejU,",
"RuJRRWWWW^^^^^^!^^^^^^^^^~~QHH(eLuJRWWWEE^^^^^^^E^^^^^^^^~QQPP^2",
"/tkkkkfffggggkkgggggfkkkhhaiex(eLtkkkkgffffkggkgkgffkkkkjjapev(3",
"/uAHDHHHHHHHHHPHHHHHHHHHPPUGSF^0JdAJDHHHHJHHPHHKKHHKHHHHPHUGZG^1",
"R5tuusfsfkkkkkkkgkkkkkkkkjjjpbU7J5tuussffkkkkggggggggkkkkhjjpbK,",
"L5MBASSZSKSSGGGGDKSKGGGHGGGGCCH6A5MBAAAASSKKSSSGGGGGGGGHHHHGCGH;",
"J3tdsusfpfffffffpffyffhssspy0kP8A5tddufupfpffpsfffffffsssaae7kU>",
"RdJLEEELEEEEE!^^EEEEE^^!~~QTHP(rLdJREWEEE^W^EW^WEE^EEE!^~~QTHH(2",
"/tkkklgfggggkkkkkfflkkkkjjaarv^eLtdkkkgffgkkggjlljgkkkkkghaael(2",
"RdAJDJKHKKKKHKHHKKKKHHPHPPPPGGE0JdAJJJHHKHHHHPUKKHKHKHPHHPUUGH~1",
"L9ttuufufgfffgkhggffgkggkhjjavU8J8ruuusufffjfgggffgfggkkhjjjpvU,",
"D5cBBAASZSSSGGGSSSSSSZGGFGGSNZP7B5mBZZSZZSSGGSZSSSSSZGGGSSGGCCH>",
"L3ddddssffffffsffffffffhssar7jU7D5usssfffffffsfffffffhfhsapeekK>",
"LdJREWEEW!^^^^^!^^^^^!^^~^QUHH(eLuJRR/WL~^^^^^^^^^^^!^^^^~~YPP(2",
"/tgkkjgffgkkgkkkkfkkgkkkjhaaeb^eLtddkkggfggfkkkkkgfggkkkjjaiev^2",
"RdAKJHHHHPJHHIPHHHJHJHPPHPUPGF~0LdAJDHLKKHKKHHPHKHHJHHPPHPPPSF!2",
"L5tuuussfgfgfkkffkfkfkkjjjjjpvU8J5tuuufuffgggkkdfkfgdkkgjkhjpvT,",
"L5MBZZZZSSSSSSGGSSSSSGGSFGHGCCH6AqnBZZDZZSSSSSSSSSSSSSGGGGGSCCH:",
"J3tdddffffffffsffffffdsssspe0kP8A3tddssffffffhsffffffffhspar0jU,",
"/dJLW!WW!^^W^^^^^^^^^^^^~~~YPH(eLtJRWEEEE^^^^^^^^^^^^^^^^~QTHH(1",
"/tkkkkffffkfgkgjkgfggkkkhhaaeb^rRtkkkkfgsggggggkgfggggggjjaarb^4",
"LdAJAJDHKKGKHHKHKHKHHKHHPPPGGHE0LdAJFFHHHHHHKKHHKHHKHHUHHPPPCG^1",
"L5tuuufsffggkkkkgkffgkggkjjjakU8J5russsfffkkkkgkfkfggkkkkhjjavU,",
"J9MAZFASKSSKSHSGSKSKGHHDGGGGCCP5ZqnAGGSSZKDDGGFGSDKSFHGGHFGHCCH>",
"B,3q0eee00000ee000000000yye87aC<M>88eeee00000ee00000000eeye07sC-",
"n<hkkvvvvvvnvnvvnvbvbvnvnbvvhvM:l<dkkvvvvvvvnvbbnvvvvnvnnbbkgvm=",
"k=:12147677777777776777767711wj-s*:,1166777777477777767777621ej&",
"s:ekbvvvmVCMCCVVCNMVNCCNbbMmmbd&e:0gvvbvmNNCCCCCNNZNMCCCmvmMbbh%",
"4>122221<22267626262277762882<>&2>1572214412476227142667776662<%",
"]]]]]]]]]]]]]]]]]]]]]]]]]]]]]]]]]]]]]]]]]]]]]]]]]]]]]]]]]]]]]]]]",
"]]]]]]]]]]]]]]]]]]]]]]]]]]]]]]]]]]]]]]]]]]]]]]]]]]]]]]]]]]]]]]]]",
"]]]]]]]]]]]]]]]]]]]]]]]]]]]]]]]]]]]]]]]]]]]]]]]]]]]]]]]]]]]]]]]]",
"]]]]]]]]]]]]]]]]]]]]]]]]]]]]]]]]]]]]]]]]]]]]]]]]]]]]]]]]]]]]]]]]",
"]]]]]]]]]]]]]]]]]]]]]]]]]]]]]]]]]]]]]]]]]]]]]]]]]]]]]]]]]]]]]]]]",
"]]]]]]]]]]]]]]]]]]]]]]]]]]]]]]]]]]]]]]]]]]]]]]]]]]]]]]]]]]]]]]]]",
"]]]]]]]]]]]]]]]]]]]]]]]]]]]]]]]]]]]]]]]]]]]]]]]]]]]]]]]]]]]]]]]]",
"]]]]]]]]]]]]]]]]]]]]]]]]]]]]]]]]]]]]]]]]]]]]]]]]]]]]]]]]]]]]]]]]",
"]]]]]]]]]]]]]]]]]]]]]]]]]]]]]]]]]]]]]]]]]]]]]]]]]]]]]]]]]]]]]]]]",
"]]]]]]]]]]]]]]]]]]]]]]]]]]]]]]]]]]]]]]]]]]]]]]]]]]]]]]]]]]]]]]]]",
"]]]]]]]]]]]]]]]]]]]]]]]]]]]]]]]]]]]]]]]]]]]]]]]]]]]]]]]]]]]]]]]]",
"]]]]]]]]]]]]]]]]]]]]]]]]]]]]]]]]]]]]]]]]]]]]]]]]]]]]]]]]]]]]]]]]",
"]]]]]]]]]]]]]]]]]]]]]]]]]]]]]]]]]]]]]]]]]]]]]]]]]]]]]]]]]]]]]]]]",
"]]]]]]]]]]]]]]]]]]]]]]]]]]]]]]]]]]]]]]]]]]]]]]]]]]]]]]]]]]]]]]]]",
"]]]]]]]]]]]]]]]]]]]]]]]]]]]]]]]]]]]]]]]]]]]]]]]]]]]]]]]]]]]]]]]]",
"]]]]]]]]]]]]]]]]]]]]]]]]]]]]]]]]]]]]]]]]]]]]]]]]]]]]]]]]]]]]]]]]"
};
