/* XPM */
static char *result[] = {
/* columns rows colors chars-per-pixel */
"64 64 87 1 ",
"  c #20201F",
". c #252526",
"X c #272728",
"o c #272828",
"O c #292A2A",
"+ c #2F2F30",
"@ c #2F3030",
"# c #323433",
"$ c #373835",
"% c #3C3D3C",
"& c #3E3F40",
"* c #444544",
"= c #474947",
"- c #464748",
"; c #474848",
": c #4B4C4B",
"> c #4F504F",
", c #4F4F51",
"< c #4F5350",
"1 c #535453",
"2 c #565957",
"3 c #575759",
"4 c #575A5A",
"5 c #5A5C5B",
"6 c #5F625F",
"7 c #61625F",
"8 c #636563",
"9 c #696B67",
"0 c #6C6B6C",
"q c #756F6F",
"w c #6B706D",
"e c #71726F",
"r c #6F6E70",
"t c #6E7272",
"y c #727474",
"u c #787675",
"i c #757B77",
"p c #797877",
"a c #767578",
"s c #757A79",
"d c #7B7C7B",
"f c #7C827D",
"g c #80827F",
"h c #7C7F81",
"j c #7D8181",
"k c #838584",
"l c #848884",
"z c #898886",
"x c #868789",
"c c #888788",
"v c #868989",
"b c #8C8D8C",
"n c #928E8E",
"m c #8C928E",
"M c #90948E",
"N c #8A8E90",
"B c #8E9191",
"V c #929492",
"C c #949997",
"Z c #999B95",
"A c #9A9799",
"S c #969A99",
"D c #9C9D9D",
"F c #A09F99",
"G c #9DA19D",
"H c #A2A19B",
"J c #A8A49F",
"K c #9F9FA0",
"L c #A09EA0",
"P c #9FA2A1",
"I c #A3A4A2",
"U c #A8A7A0",
"Y c #A5A9A5",
"T c #AEAAA5",
"R c #ABABAB",
"E c #B0ABA8",
"W c #AFAEB1",
"Q c #B4B4B4",
"! c #B6B7B8",
"~ c #B5B8B8",
"^ c #BABABB",
"/ c #C5C5C6",
"( c #C7C6C8",
") c #C8C7C9",
"_ c #CBCCCC",
"` c #D2D3D4",
"' c None",
/* pixels */
"VQQQ/_```)))))))()))))((_`)__^QfMQQ!/_``_)))))((()))))((_`___^Qg",
"yIRQ^^!QWWWWWWWWWQWWWWWW^^~~QTA=9IRQ!!!!QWWWWWWWWWWWWWWW^^~~QRZ:",
"8ARRRLFAKKKKKKADDDPGDDDPYYHGGMu#5ARWRIDADDDPKKDDDPGKGDDGIIPGHMi$",
"rLRYLAAAKLIIPIIIIIIHIIIIYYGGDVd%9KRLLAAADIIHIIIIIHIIIIIIYYGGDVd$",
"6yaar0quuuapudduuuuuudddsfpiyw8$3yaaq0qquuuuppduauuuuuddifiuye7#",
"-,,,,:,111111111111111112<<<::=O*1,,,,,1111111211111121121<>::=O",
"%..XXOXXooooooXoooooXXoooooX.O%.$ XXXXOOoooXXXooooooooooo.XX.+$ ",
"%.+##+######@###########@###@#%.%X++########################+#& ",
"3#&&&*****==*=*=*****=**----&-4#1#&&*************=***=****-&&-4+",
"Z7uggkjjklllgllllgllllkxlvjjjkC5n7ugggggjxkkllxklglkkkkxzlvjjkC<",
"Z7dkkkklflgfllllllkkllllkkjjskD6A7dkkkklflglllllgllllllxkkjjskS<",
"J0cnMMMMMVVCVVVMmVMVMVVVVBBbjBR9F0cnVMmMMVVVVVVVMMVMVVVVVVBbjNW4",
"EqnnMVMMnVVMVVVVVVVVVVVVBBNNkNW9FqnnnMMmMMVMVnVVZVVVVVVVBNNNkNW7",
"TqznzzcczczzlccczzzxcccvxxvjjbR9FqzzznczlbzzcccczlclczzcvvvjjNR5",
"JqggkzzvbbmbbbMnbmMbnbnbNNBNvBI8FqgzgzzzmmbMbnbbmnmnbbnbNNBNvmI3",
"H8pgkkkkklzllxxxklxlzlxvxvvjjxD6F8ugkkkkkllllcvxkllllxxxxxkxjlD1",
"M5ydddjjffffffffffffffffffjfijV5m5yhjddjfffffffjffffffjffgffsjC,",
"b3ryasssssfiiiifiifsiiiiffiy0dB3k3rttsssiiiiiissiifissidffptwsN-",
"M40tttisssspisssisssssisssdtthB4v4wtttssisisssssssiisssdpssirhB,",
"n5wfvvbbVCCZCCSSCCSSSCCCBmCBmBV4l5wjvbbbBSSSSDCZSCCCSSCCmmVCNVV:",
"J0gklvblmmbmbbnbbMmmmbmNbbBNvBI8H0glkzlzmmmmmbNbmbmmmnMbNbBNvBP4",
"H8pkjkkkgllllxvlkllzlvxxcvkvjvD8Z8ugkkkkjllllkxxlllflklzvvvjjvD1",
"V6ydfdfjffffffjjffffffffffjhsjV5M5pdffffffffffjjfffffffgfjhjsjB<",
"c2ryyassiifiiissiiiiiiiifdstwdB1x30yypsiiiiiiiissiifiiiiffstwdB:",
"V40ttyssssssssssisssssssassythB4c40ttysshsssssasssssssssppsttjB,",
"m5wjvvbNBSSSSSSSZCDCSSSSBBCCbVV3l5wfvvNNVSCCKCKSSSSSSSCSmmCVbBB:",
"s8ijkkkjkxvvxNNNxxxxvNNNvkvNxgy;t9ijkkkjxxxxjNNNxxxxxNNbvlbNxkt*",
"''''''''''''''''''''''''''''''''''''''''''''''''''''''''''''''''",
"''''''''''''''''''''''''''''''''''''''''''''''''''''''''''''''''",
"''''''''''''''''''''''''''''''''''''''''''''''''''''''''''''''''",
"''''''''''''''''''''''''''''''''''''''''''''''''''''''''''''''''",
"''''''''''''''''''''''''''''''''''''''''''''''''''''''''''''''''",
"''''''''''''''''''''''''''''''''''''''''''''''''''''''''''''''''",
"''''''''''''''''''''''''''''''''''''''''''''''''''''''''''''''''",
"''''''''''''''''''''''''''''''''''''''''''''''''''''''''''''''''",
"''''''''''''''''''''''''''''''''''''''''''''''''''''''''''''''''",
"''''''''''''''''''''''''''''''''''''''''''''''''''''''''''''''''",
"''''''''''''''''''''''''''''''''''''''''''''''''''''''''''''''''",
"''''''''''''''''''''''''''''''''''''''''''''''''''''''''''''''''",
"''''''''''''''''''''''''''''''''''''''''''''''''''''''''''''''''",
"''''''''''''''''''''''''''''''''''''''''''''''''''''''''''''''''",
"''''''''''''''''''''''''''''''''''''''''''''''''''''''''''''''''",
"''''''''''''''''''''''''''''''''''''''''''''''''''''''''''''''''",
"''''''''''''''''''''''''''''''''''''''''''''''''''''''''''''''''",
"''''''''''''''''''''''''''''''''''''''''''''''''''''''''''''''''",
"''''''''''''''''''''''''''''''''''''''''''''''''''''''''''''''''",
"''''''''''''''''''''''''''''''''''''''''''''''''''''''''''''''''",
"''''''''''''''''''''''''''''''''''''''''''''''''''''''''''''''''",
"''''''''''''''''''''''''''''''''''''''''''''''''''''''''''''''''",
"''''''''''''''''''''''''''''''''''''''''''''''''''''''''''''''''",
"''''''''''''''''''''''''''''''''''''''''''''''''''''''''''''''''",
"''''''''''''''''''''''''''''''''''''''''''''''''''''''''''''''''",
"''''''''''''''''''''''''''''''''''''''''''''''''''''''''''''''''",
"''''''''''''''''''''''''''''''''''''''''''''''''''''''''''''''''",
"''''''''''''''''''''''''''''''''''''''''''''''''''''''''''''''''",
"''''''''''''''''''''''''''''''''''''''''''''''''''''''''''''''''",
"''''''''''''''''''''''''''''''''''''''''''''''''''''''''''''''''",
"''''''''''''''''''''''''''''''''''''''''''''''''''''''''''''''''",
"''''''''''''''''''''''''''''''''''''''''''''''''''''''''''''''''",
"''''''''''''''''''''''''''''''''''''''''''''''''''''''''''''''''",
"''''''''''''''''''''''''''''''''''''''''''''''''''''''''''''''''",
"''''''''''''''''''''''''''''''''''''''''''''''''''''''''''''''''",
"''''''''''''''''''''''''''''''''''''''''''''''''''''''''''''''''",
"''''''''''''''''''''''''''''''''''''''''''''''''''''''''''''''''"
};
