/* XPM */
static char *result[] = {
/* columns rows colors chars-per-pixel */
"64 64 95 2 ",
"   c #1D1E1C",
".  c #222221",
"X  c #282728",
"o  c #2D2E2D",
"O  c #353533",
"+  c #373838",
"@  c #3C3C3C",
"#  c #403F3F",
"$  c #3F403F",
"%  c #403F40",
"&  c #444443",
"*  c #474947",
"=  c #484847",
"-  c #474649",
";  c #474949",
":  c #4A4C4B",
">  c #544F4E",
",  c #4F514F",
"<  c #50524F",
"1  c #514F51",
"2  c #4F5150",
"3  c #525452",
"4  c #565855",
"5  c #5C5A57",
"6  c #575758",
"7  c #5D5D5C",
"8  c #605D5B",
"9  c #5E605E",
"0  c #62615E",
"q  c #5D5F60",
"w  c #5F6261",
"e  c #636463",
"r  c #676966",
"t  c #696B66",
"y  c #666668",
"u  c #666A6A",
"i  c #6C6D6B",
"p  c #706E6A",
"a  c #6E706D",
"s  c #72716F",
"d  c #6B6D71",
"f  c #716F71",
"g  c #6D7171",
"h  c #747574",
"j  c #787675",
"k  c #757875",
"l  c #787B75",
"z  c #777778",
"x  c #777D79",
"c  c #7D7D7C",
"v  c #807E7E",
"b  c #7B8077",
"n  c #7E807E",
"m  c #81817D",
"M  c #817F80",
"N  c #7F8180",
"B  c #858583",
"V  c #878884",
"C  c #8C8B86",
"Z  c #858A89",
"A  c #8D8D8C",
"S  c #908F8D",
"D  c #8E908F",
"F  c #93928E",
"G  c #8E8F90",
"H  c #939493",
"J  c #989792",
"K  c #9B9B96",
"L  c #999798",
"P  c #969B9A",
"I  c #9C9D9C",
"U  c #9DA099",
"Y  c #A1A19E",
"T  c #A4A89F",
"R  c #A19FA1",
"E  c #9DA3A1",
"W  c #A2A2A1",
"Q  c #A9A7A6",
"!  c #A6A9A4",
"~  c #AAA8A7",
"^  c #A9A7A8",
"/  c #A7A9A8",
"(  c #AAAAAA",
")  c #B0AFA9",
"_  c #AEB1AF",
"`  c #B3B3AC",
"'  c #AFAEB1",
"]  c #B3B4B3",
"[  c #B7B7B9",
"{  c #B6B8B8",
"}  c #BABABA",
"|  c #C6C5C6",
" . c #C7CBC9",
".. c #CBCBCC",
"X. c #D2D3D4",
/* pixels */
"B ' ] ] } ....X...| | | | | | | | | | | | | | | | X. . . .} { m B _ ] ] } ....X.X.| | | | | | | | | | | | | | | | X. . ...} { C ",
"7 I ( ] } } } [ ] ' ' ' ' ' ' ' ' ' ' ] ' ' ' ' { } { { { ( Y 4 6 I ( ] [ } [ { ' ' ' ' ' ' ' ' ' ' ' ' ' ' ' ' [ } } } { ( I 7 ",
"3 H Q ( ( ^ R L L R R R R E I I R I K R R R I E W ^ W I U P m $ : H ^ ' ( ^ I L L R I R R I I U I R R E R Y I Y W W W U U H B & ",
"q P ( ^ R L L L R R W W W W W W W W W Q W W W ! ! ! W I U K m $ 6 I ( W R L L I Y W Y R W W ^ W W E W W W W W R ~ ! E U I J B & ",
"6 f h h f d f j j j j j z z c z j j j j j c c c x b l x h a t $ 1 f z z f d f f s j j v j c c c h j j j j c v c b b l l h s t @ ",
"% 1 1 1 1 : 1 1 > 3 3 3 3 3 3 3 3 3 3 6 1 3 1 1 4 3 2 2 : : * o @ 1 1 > 1 : 1 > 4 4 > 3 3 1 1 1 3 6 3 3 3 3 3 3 4 3 , < : : = o ",
"+ . X o o o o o o o O o o o o o o o O o o o o o o o o o o X O . o . X X o o o o o o o o o o o o o o o o o o o o o o o o o o O   ",
"6 O + % % % % - & - % & & % % # # % % % - % % @ $ $ $ $ + $ , X : O # % % % % - - % & - % % % @ @ & & & % & % # $ $ $ $ + + , X ",
"j > e i i g h s f f j f h f p p f h h f j f d p i g g d e 7 a + y > e p i g h h i h h f h f f p f f h f f f f i i a g u w w i O ",
"` 8 p l c c k l v M M M M v v M M M v M M v M M N x x x i g ! 9 K 8 p j x c z k c M M v M M v v M M M M M M c M N b x x a g / 2 ",
"] 0 F T W ! / ! Q ) ~ ~ ( ( ^ ( ~ ~ ~ ~ ~ ~ ) ( ( ( / E E I ] w U 0 J R W ! ! ! ~ ) ~ ( ~ ( ~ ~ ~ ) ) ( ( ( ~ ( / / / E E P ] 4 ",
"] 8 s c x c b b m B B B B B B M B B V B B B M B B B N x h x _ 9 K 8 p v c n b b v B B V B B B M B M B B B B B M Z N N n k z _ 4 ",
"` 0 F Y Y W ! T T ~ ~ ~ ( ^ ^ ^ Q ~ ~ ~ ^ ^ ^ ^ / / E E E P _ 9 K 8 F Y Y Y ! T Q ~ ~ ~ ~ ~ ~ Q ^ ~ ~ ~ ^ ^ ^ ^ / / E E E P _ 3 ",
") 8 p j k l l l v v v v M M v v v v v v v v v v N N x x g k / 9 J 8 p j l l l l c v v v v v v v M v v v c N v v N N x k g k / 3 ",
"Q 8 m Y K K K K Y Y R R R R R R Y R R W R R R R E E E P P G / 7 J 8 C J K K I U U R Y Y Y R R R Y R R R R R R R W E E P P H / 2 ",
") 8 p l l l l j v v v v v v c c c v v v v c v N M N x k g k / 9 J 8 p j h l l l c v v v v v v v v v v v v v N N N N x k g z / 3 ",
"` 0 F Y Y Y T T T Q Q Q ~ ~ Q Q Q Q Q ~ ~ Q ~ ~ / / / E E P _ w K 0 F Y Y W T T Q ~ ~ ~ ~ Q ~ R Q ~ ~ ~ Q Q Q Q ~ ^ / E E P _ 3 ",
") 5 p l l l l l v v v v v v v v v v v v v v v v N M x h g z / 7 J 5 p l k l l l v v v v v v v v v v v v v v v v M M x k g h / 3 ",
") 5 m K K J Y Y Y Y Y Y R R R Y Y Y R R R R R R E E E P P H / 7 F 8 C K I I I U Y Y R Y Y R R R Y R Y Y R R R R W E E P P H / 2 ",
") 5 p v k l l l v v v v v v v v v v v v v v v v N c x k d h / w J 8 i k h k l l v v v v v v v v v v v v v v v v N c z k g z / 3 ",
") 0 F Y Y T T T T ~ ~ ~ Q Q Q Q ~ ~ ~ ~ Q Q Q Q / / / E E P _ 9 J 0 F Y T T T T T Q Q Q Q Q Q Q ~ ~ ~ ~ ~ ~ Q Q / / E E E P _ 3 ",
") 5 p l k k l l v v v v v c v v v v v v v v v v N N x h g g / 9 J 8 p j s l l l v v v v v v v v v v v v v v v v N N N k g h / 3 ",
") 8 C K K I U U U Y R R R R R R R R Y Y R R R R E E E P P H / 7 F 8 m Y J Y K J Y R Y Y R Y R R Y Y Y Y R R R R E E E P P H / 2 ",
") 5 i k k k l l v v v v v v c v v v v v v v v v N c x k g k / 9 J 8 p l s l v v v v v v v v v v v v v v v v v v N c x k g z / 3 ",
") 0 F Y U W ! T ! ~ ~ ~ Q Q Q Q Q Q Q ~ Q Q ~ Q Q ^ ^ E E P _ 9 J 0 F Y Y Y T T T Q Q Q ~ Q Q Q ~ ~ ~ ~ ^ ^ ^ ^ / / / E E P ' 2 ",
") 8 p l k k l l c c v v v v v v v v v v v v v v v v x k g k / 9 J 8 p l l j l l v v v v v v v v v v v v v v c M N N x k g h / 6 ",
"T 8 m U I I U U Y W Y Y R R R R R W Y Y R R R R W E E P P G / 7 F 8 m K K K U U Y Y Y Y Y R R Y R R R Y R W R R E E R P P H / 2 ",
") 8 p l k l l l c v v v v v v v v v v v v v v v N c x k g k / 7 J 8 p v k l l l v v v v v v v v v v v v v v c c N N x h g z / 2 ",
"` 0 F Y Y T T T T ~ ~ ~ ~ Q Q Q Q Q ~ ~ ~ ~ Q Q ^ / / E E P _ w K 0 F Y T W W T T Q ~ ~ Q Q ~ Q Q Q Q ~ ^ ^ ^ ^ / ( E E E P _ 3 ",
") 8 p l l j l l v v v v v v v v v v v v v v v v N N x h g h / 7 J 5 p l k k l l v v v v v v v v v v v v v N c M N N x k g k / 2 ",
"Q 8 m J K K I U U Y Y Y Y R R R Y Y Y Y R R R R E R E P P H / 7 F 8 C K K I U U Y Y Y R R R R R Y Y Y Y R R R R E E E P P H / 2 ",
") 8 p v h l l l v v v v v v v v v v v v v v v v N N x k d h / w J 5 i k k k l b v v v v v v v v v v v v v N c M N M x k g k / 4 ",
") 0 F Y Y W T T T ~ Q Q Q Q Q Q ~ ~ ~ ~ Q ^ ^ ^ / / E E E P _ 9 K 0 S Y Y T T T T Q Q ~ ~ ~ Q Q Q Q Q Q Q Q Q Q Q ~ / E E P _ 2 ",
") 5 p l k l l l v v v v v v v v v v v v v v c M N N N k d k / 9 J 8 p l l j l l v v v v v v v v v v v v v v v v M M x k g h / 6 ",
") 8 C K I I I U Y Y R R R R R R R R R W W R R R E E P P P H / 7 F 8 m U I K U U Y Y Y Y R R R R Y R Y Y R R R R R W E P P H / 2 ",
") 5 i k h k l l v v v v v v c v v v v v v v c c N N x k g k ! 9 J 8 p l h l l l v v v v v v v v v v v v v v v v N c z k g z / 2 ",
") 0 F Y Y T T T T T Q ~ Q Q Q Q T ~ ~ ~ ^ ^ ^ ^ / / W E E P _ 9 K 0 F Y W W ! T T ~ ~ ~ ^ Q ^ Q Q ~ ~ ~ ~ Q Q ~ / / E E E P _ 3 ",
") 8 p l j l l l v v v v v v v v v v v v c N v v N N N k d k / 9 J 5 p l h k l l v v v v v v v c v v v v v v v v N N x k g k / 2 ",
"T 8 m U J U U K Y W W W R R R R Y Y R Y R R R W E E E P P H / 7 F 8 C K I U U U U R Y W R R R R Y Y Y R W R R R E W E P P H / 2 ",
") 8 p l l s v j v v v v v v v v v v v v v v v N N N x g d k / 9 J 8 i h k k l l v v v v v v v c v v v v v v v v N N x k g k / 4 ",
"` 0 F Y Y Y T T T Q ~ Q ~ Q Q Q Q ~ ~ ~ ~ ~ ~ Q / / E E E P _ w J 0 F Y U W ! T ! ~ ~ ~ ~ Q ~ Q ~ ~ ~ ~ ( ^ ^ ^ / / E E E P ' 6 ",
") 8 p l l j l l v v v v v v v v v v v v v v v v M M N z g h / w J 8 p j h k l b c c v v v v v v v v v v v v v c N M x x g z / 2 ",
"~ 8 m J K K Y U Y Y Y R Y Y R R Y Y Y Y R R R R E E E P P H / 6 F 8 C K I I U U Y W Y Y R R R Y Y R R R W Y R R E E E P P H / 2 ",
") 8 p v k l l l v v v v v v v v v v v v v v v v N c x x g h / w F 5 p l k k l l c v v v v c v c v v v v v v c v N M x h g k / 6 ",
"` 0 F Y U W ! T T ~ ~ ~ Q Q ~ Q Q ~ Q Q Q Q ^ ^ / / / E E P _ w K 0 F Y Y Y ! T T ~ ~ ~ ~ ~ Q Q Q Q Q ~ ^ Q ^ ^ / / E E E P ' 2 ",
") 5 p l z l l l v v v v v v v v v v v v v v v v N N x h g k / 9 J 8 p l l l l l v v v v v v v v v v v v v v v v N N N k g k / 3 ",
"~ 8 A K P I U U Y Y Y Y Y R U R Y Y Y R R R R R E W E P P G / 7 F 8 C K I K U U U Y Y Y Y R R Y R Y Y Y W W R R E E E P P H / 2 ",
"~ 8 p h k x b b b v v c v v v v v v c v v v v v c c x g i k W 7 F 8 p j h l c b l v v v v v v v l v v v c c c c N n c g d g / 3 ",
"~ t C K K I K I U I E Y I I Y I I R I I I Y W I I R I P H A / e F i S L K I I U I R Y R I R I I Y I Y I I R I I I I P P H G ^ 6 ",
") p p p p p f i i p p i i f p f p p i h i i i f d d d y y t / w J p p p p a a a i i i p i p f f p p d p f p p f d d d y y y ^ 6 ",
"Q p M S A S F D G G G S G G G G G G A S G G G G G G G G Z Z W 9 F p B S A A D D A S G G G G G G A H S G G G G G G G G G Z B W 6 ",
"Y e 8 t r r t u i i i a i i f i i i i i p p f i d i d u u i I 6 A 0 8 r r r t t i i i i i p p i i i i p p d p i d i d i u i I 2 ",
"K 0 v M V C C C C A A S S A A C A A A A A S A A A A Z Z Z N H 2 B 8 v m B C C C A A C S A A A C A A A A A A A A A G Z Z Z B H ; ",
"F 5 8 y e r t i t p y i i i i i t i t i y i y i i u u w q y G 2 v 5 8 e r r r t t u i i i i i i i t t i t i i i i i u w w w A ; ",
"F 8 j M M B B V B V V V V V B V V C V C V V V V Z B B M c z H 3 v 8 v v B B B m B C V B Z V V V V V V V V V V C B Z Z N c h G , ",
"F 8 8 8 8 e 8 8 7 8 q 8 q 0 8 q q 8 q 8 q 8 e 7 q q q 6 6 6 G 2 v 8 8 8 0 0 9 9 7 7 9 0 8 q 8 w 0 7 8 w 8 q q 8 q q q 6 6 7 A : ",
"S 8 p c l c z c c c c z c c c z l c c c z c c c z x x x z k A 3 v 8 p v j c z c x c c c z c c c c z c c c c c c z x c x x h A ; ",
"C 3 3 6 6 6 7 6 5 7 9 9 9 7 7 0 9 9 9 7 9 7 7 7 q q q 9 6 6 B : j > 3 5 5 5 5 5 5 9 9 7 9 7 7 7 9 9 7 9 7 7 7 0 q q q 7 q 6 B & ",
"V < r p h h k k k k k k k k h z l h k k k k k k z z z z h d N ; j < e p h h h k h l k l k k k k h k l k h z h z h h z h h d M % ",
"v = : 1 < 3 3 2 2 3 3 < 3 3 3 3 3 3 3 3 , 3 3 3 3 6 3 2 : 3 z & p = = 3 2 2 3 3 3 3 < 3 3 2 3 3 3 , < 3 2 3 3 3 6 3 3 3 : 2 z $ ",
"s = 6 e e u u u u u i u t t t t t u t u u u u t u i u r w e h % e - 6 e e y u u u u u u i u t t t i u u i u u u t t t e w y h + ",
"i @ @ - & * ; ; : : : : : : : : : : : : , : : ; : : : = - : y @ 7 % $ & & - ; ; : : : : : : : : : : : : : : : : : : : : & : y + ",
"e - , w y u i u i h f h g h k g h g f h h h h h a i a h i t y + 3 * , 9 r u u u d f h f k g k g h h h g f h h h g i d h d u y + ",
": @ & = - - - - & & - ; ; : : : - - - - - ; : : : ; ; : : & & o & $ & = - ; - - & - - - ; : : ; & ; * * - ; : : : ; : : : & % o "
};
