/* XPM */
static char *result[] = {
/* columns rows colors chars-per-pixel */
"64 64 87 1 ",
"  c #20201F",
". c #252526",
"X c #272728",
"o c #272828",
"O c #292A2A",
"+ c #2F2F30",
"@ c #2F3030",
"# c #323433",
"$ c #373835",
"% c #3C3D3C",
"& c #3E3F40",
"* c #444544",
"= c #474947",
"- c #464748",
"; c #474848",
": c #4B4C4B",
"> c #4F504F",
", c #4F4F51",
"< c #4F5350",
"1 c #535453",
"2 c #565956",
"3 c #575759",
"4 c #575A5A",
"5 c #5B5C5B",
"6 c #5F625F",
"7 c #61625F",
"8 c #646563",
"9 c #696B67",
"0 c #6C6B6C",
"q c #756F6F",
"w c #6B706D",
"e c #71726F",
"r c #6F6E70",
"t c #6E7272",
"y c #727474",
"u c #787675",
"i c #757B77",
"p c #797877",
"a c #767578",
"s c #757A79",
"d c #7B7C7B",
"f c #7C827D",
"g c #80827F",
"h c #7C7F81",
"j c #7D8181",
"k c #848584",
"l c #848885",
"z c #8A8886",
"x c #868789",
"c c #888788",
"v c #868989",
"b c #8C8C8C",
"n c #928E8E",
"m c #8D928D",
"M c #90948E",
"N c #8A8E90",
"B c #8D9091",
"V c #929492",
"C c #949997",
"Z c #999B94",
"A c #9A9799",
"S c #969A99",
"D c #9C9D9D",
"F c #A09F99",
"G c #9EA19D",
"H c #A3A19C",
"J c #A8A49F",
"K c #9F9FA0",
"L c #A09EA0",
"P c #9FA2A1",
"I c #A3A4A2",
"U c #A8A7A0",
"Y c #A5A9A5",
"T c #AEAAA5",
"R c #ABACAC",
"E c #B0ABA8",
"W c #AFAEB1",
"Q c #B4B4B4",
"! c #B6B7B8",
"~ c #B5B8B8",
"^ c #BABABB",
"/ c #C5C5C6",
"( c #C7C6C8",
") c #C8C7C9",
"_ c #CBCCCC",
"` c #D2D3D4",
"' c None",
/* pixels */
"VQQQ/_```()))))))))))))/_`)__^QgnQQ!/_``_)))))/))))))))/_`___^Qg",
"yIRQ^^!QWWWWWWWRWWWQWWWW^^^~!YZ=8IR!!^!!QWWWWWWWWWQWWWWW^^~~QYZ>",
"8ARRRLLAKKKDKDDDDPGDDDDKYIPGDVp$5DRWELAADDKGKDDDDDDKPDGHIIPDGVi$",
"rLRYLAAALLIIIIIIHIIIIIIIYYGGDVd$9LYLLAADDIIHIIIIIIIIIIIIYYPGDVd$",
"5yaar0quuuuaupdpuapuppppifssye8$3aaar0qqauaupppuauuuupdifdipue8$",
"-1,,,:,111111111111111222<<<=:=O&1,,,,,1111111211111111111>>===o",
"$..XXXOXooooooXXoooXXXXXoOoX.O$.$...XXOOoooXXXXXooooooooooXX.+$ ",
"&X+##+##################@@##@#*.%.+######################@##+#& ",
"3#%*&*********=***===***---*&-2#,$%&&****************-**=*-&&-2O",
"Z7ugkdkfllllllllgllgllllkvjjjkC5V7uggkgkdllllllkglllllkllvvjjvC<",
"Z8dkkkllflglllllllllllllkkkjskD6n7dgkkllfllglkkllglllkllllkjskK<",
"J0zbnnMMMVVVBVVmmVmVmVVVCBBvkBR9F0nnVMmmMVVVVVCVMVVVVVVVVBbvjBR4",
"EqnnnVVmnVVMVVVVVMVVVVVVBBNNkNW9UqnnnMbmMVVVVVVVVMVVVVVVBNNNkNW5",
"TqzzzzbvlczzvzvbbzcczcbvxkvjjbR9LqzzznbzvbzzxzxbvvbzxbccvvvjjNR5",
"J0gzlzzvbbbMbnbnbbbnbbnbNNBNvBI8FqgzkzzzmmbmbbnbbnbmbnnbNNBNvbY2",
"H8uggkkklvllvllvllvllclxxvNjjvD7F7uggkkkgllllzxlllllllxvcxkvjvD1",
"M7adddjjffffffffffffffffjfjfijC4n5adfdjfffffffjffffffffffgjfshC:",
"z30yyassiiiiiiiissiifiiidfdywdb2l30ayissiiiiiiiiiiifipsdffsywdN;",
"UqznMVBMMVVVmVVMMVVVVVVVCBBvjBR9F0znVVVMMMVVVVVVMVmmVVVVVBBvkVW4",
"EqnnVMmmnVVMVVVZZmVVVVMVBBNNkNW0JqnnnVmmMVVVVVVVVVVMVVVVVBNbkbW5",
"TqznzzzbzvvzxcxbzzvzbblcvvvjjbR9FqzzzzzvzvzxzbxbbvzzzvbxvvjvhbR5",
"J9gvzzvbbbbMbnbbbmbbbbnbbbNNvmI8FqgzlzzbmbmbbbbbmbbmbbnbNBBNvNI2",
"H7pdkllkllllvvlclvvllllcbvvjjvD6Z8ugkkllglvllzvvllllzvlcvxkjjvD1",
"V6adddhdffffffffffffffjjjjjhsjC5M5adfddfffffffffffffffffjjjdijC>",
"b30ayyssiiiiiiiiiiiiipisfdpywhN1l30aysssiiiiiiiisiiiiispffsy0hN-",
"M40tyaissssssssssssissssiiiytjB4b30yrtassssssssdssssssssissythB:",
"J0zVnVMmMVBBVVVVmVBVVVVVCBmvjBR9F9znMVBMMVVVBVVVMVVVVVVVVVNvkBR5",
"TqnnMMmmmVVVVVVVZVVVVVVVNBNbkBW9JqnnVMmmmVVVVVVVVVVVVVVVVNNNkbW6",
"EqzznzbvvzvzlcvbvllzccbxxxvjjmR9HqzzzzbvzvzzlbvzbvlzzbxbvjvjhbR5",
"J9glzzzvbmbmnbnbmbnmbbnbNNNNvBI8FqgvzzzvbmbmbmbnmbbbnbbbBBNNvNI2",
"H8dgglkkllllvllzllllvzlxccxvjvD8Z7pfkllkgllvzlvlllvlvlvvvvkvjvD1",
"V5udddhjfffffffhffffffjfkfhdsjB5M5adddjdfffffhfffffffffjjjjdijC>",
"v3ryysssiissssssiiidiiisfdst0hb2z20yysssssiiiisssiiisssdfdsttdB;",
"B40tttsssdssssssssssssssissttjB4b3wyttssssdsssssssssssssisittjB>",
"m4tjvvNNBSSSSSSSSSSSSDSSMmCCbBV3l4wfvvNNBSSSSSSCSSCCSSSSBBVVbVB<",
"d8sjkkkjjvxxvbNNxxxxvvNNvkvNvjy;y8ijkkkhkxxxvNNNxxvvxNNNvlNNvjt&",
"''''''''''''''''''''''''''''''''''''''''''''''''''''''''''''''''",
"''''''''''''''''''''''''''''''''''''''''''''''''''''''''''''''''",
"''''''''''''''''''''''''''''''''''''''''''''''''''''''''''''''''",
"''''''''''''''''''''''''''''''''''''''''''''''''''''''''''''''''",
"''''''''''''''''''''''''''''''''''''''''''''''''''''''''''''''''",
"''''''''''''''''''''''''''''''''''''''''''''''''''''''''''''''''",
"''''''''''''''''''''''''''''''''''''''''''''''''''''''''''''''''",
"''''''''''''''''''''''''''''''''''''''''''''''''''''''''''''''''",
"''''''''''''''''''''''''''''''''''''''''''''''''''''''''''''''''",
"''''''''''''''''''''''''''''''''''''''''''''''''''''''''''''''''",
"''''''''''''''''''''''''''''''''''''''''''''''''''''''''''''''''",
"''''''''''''''''''''''''''''''''''''''''''''''''''''''''''''''''",
"''''''''''''''''''''''''''''''''''''''''''''''''''''''''''''''''",
"''''''''''''''''''''''''''''''''''''''''''''''''''''''''''''''''",
"''''''''''''''''''''''''''''''''''''''''''''''''''''''''''''''''",
"''''''''''''''''''''''''''''''''''''''''''''''''''''''''''''''''",
"''''''''''''''''''''''''''''''''''''''''''''''''''''''''''''''''",
"''''''''''''''''''''''''''''''''''''''''''''''''''''''''''''''''",
"''''''''''''''''''''''''''''''''''''''''''''''''''''''''''''''''",
"''''''''''''''''''''''''''''''''''''''''''''''''''''''''''''''''",
"''''''''''''''''''''''''''''''''''''''''''''''''''''''''''''''''",
"''''''''''''''''''''''''''''''''''''''''''''''''''''''''''''''''",
"''''''''''''''''''''''''''''''''''''''''''''''''''''''''''''''''",
"''''''''''''''''''''''''''''''''''''''''''''''''''''''''''''''''",
"''''''''''''''''''''''''''''''''''''''''''''''''''''''''''''''''",
"''''''''''''''''''''''''''''''''''''''''''''''''''''''''''''''''",
"''''''''''''''''''''''''''''''''''''''''''''''''''''''''''''''''",
"''''''''''''''''''''''''''''''''''''''''''''''''''''''''''''''''"
};
