/* XPM */
static char *result[] = {
/* columns rows colors chars-per-pixel */
"64 64 87 1 ",
"  c #20201F",
". c #252526",
"X c #272728",
"o c #272828",
"O c #292A2A",
"+ c #2F2F30",
"@ c #2F3030",
"# c #323433",
"$ c #373835",
"% c #3C3D3C",
"& c #3E3F40",
"* c #444544",
"= c #474947",
"- c #464748",
"; c #474848",
": c #4B4C4B",
"> c #4F504F",
", c #4F4F51",
"< c #4F5350",
"1 c #535453",
"2 c #555857",
"3 c #575759",
"4 c #575959",
"5 c #5A5C5B",
"6 c #5F625F",
"7 c #61615F",
"8 c #636463",
"9 c #696B67",
"0 c #6C6B6C",
"q c #756F6F",
"w c #6B706D",
"e c #71726F",
"r c #6F6E70",
"t c #6E7172",
"y c #737374",
"u c #787675",
"i c #757B77",
"p c #797877",
"a c #767578",
"s c #757A79",
"d c #7B7C7A",
"f c #7C827D",
"g c #80817E",
"h c #7C7F81",
"j c #7D8181",
"k c #838584",
"l c #838884",
"z c #8A8886",
"x c #868789",
"c c #888788",
"v c #868989",
"b c #8B8D8C",
"n c #928E8E",
"m c #8D928D",
"M c #90948E",
"N c #8A8E90",
"B c #8E9191",
"V c #929492",
"C c #949997",
"Z c #999B95",
"A c #9A9799",
"S c #969A99",
"D c #9D9D9D",
"F c #A09F99",
"G c #9DA19D",
"H c #A3A19C",
"J c #A8A49F",
"K c #9F9FA0",
"L c #A09EA0",
"P c #9FA2A1",
"I c #A3A4A2",
"U c #A8A7A0",
"Y c #A5A9A5",
"T c #AEAAA5",
"R c #ABABAB",
"E c #B0ABA8",
"W c #AFAEB1",
"Q c #B4B4B4",
"! c #B6B7B8",
"~ c #B5B8B8",
"^ c #BABABB",
"/ c #C5C5C6",
"( c #C7C6C8",
") c #C8C7C9",
"_ c #CBCCCC",
"` c #D2D3D4",
"' c None",
/* pixels */
"VQQQ/_```)(()((((()))(((_`)__^QfMQQ!/_``_)))))(()))))(((_`___^Qg",
"yIRQ^^!QWWWWWWWWWQWWWWWQ!^^~QTA=8IRQ!!!!QWWWWWWWWWWWWWWW^^~~QYZ>",
"8ARRRLKAKKKKKDDDDDGGGDDPYIGGGMu#5DRWRIFADGDDKDDDDKGPDDDIIYPDDZi$",
"rLRYLAAAKLIIIIIIIIIIIIIIYYGGGVd%9LRLLAAADIIIIIIIIHIIIIIYYYGGZMd$",
"6yaar0qquuusudduuuuuudddsfiuiw8$3raar0qqyuuuupdsuuuuudssifuuue8#",
"-,,1,:11111111111111111111<>=:=O*1,1,,11111111111111111121<1:==O",
"%....XXXO.OOO..OoOooXXoooOoooO%.$.XXXXXXOO.OXoO.oOoOoOOO.oXXXO$ ",
"%.+#######@#@###@#######@###@#%.%.++##############@##@@##@##+#%.",
"3$&&&&****==*********=**---*&-2#1#&&&********-**********=*-&&-4+",
"Z7uggkkjklllllllllglllcxkvjljkC5n7uggkgkhllllkckllglclklclvjjlC<",
"Z7dklkkkjlljllllllllllllkkjjskD6A7dklkkkglglllllglkkllccklkjskS<",
"J0cnMMMMMVMVVVVVMVmVMVVVCBBbjBR9F0cnVMmMMVVVVVVVMVVVVVVVVBBvkNW4",
"EqnnnVMmnVVMVVVVVVVVVVVVBNNNkNW9FqnnnMmmMVVVMVVVZVVVVMVVCNNNkNE6",
"TqzzzzbzcccccvzvzzcccvvcxxvjjbR9FqzzznzzzlccccczlzvlbvccxNjjhNR5",
"JqgzzcvlbmbMmbnbbbmnnbbbNNBNvBI8FqgzzzccmmbMnbnbbnMbbbnNNNNNlBI4",
"F8uggklkklcllcczcllllzccxvNjjvD8F8uggkkkklllclcclllzlcxxvkvljcD1",
"M5uddjfjjfffffjjfffffffffgffijV5m5yjjdhfffffffjjfffffjffgkjfijB<",
"b3ryysssssiiifiiifiifiiiffsyrdN2c3rttussiifsiisssiifssssffstwhB:",
"V40tttsysssstiisiiishsiiissttjB5c4wtttssiissssssiiiissssiiuttjB,",
"b5wjvvNNVSSSGCSSCCSSCCCCBBCVbBB4v4wjvbNNBCSSSSSSSCCCSSSSmmCVbBV:",
"s8skllkjkxxxxNNvxxxNjNBNckNNxkr:t9ifkkkjjbvvvNNvvvxxvNNNckbNxjy&",
"''''''''''''''''''''''''''''''''''''''''''''''''''''''''''''''''",
"''''''''''''''''''''''''''''''''''''''''''''''''''''''''''''''''",
"''''''''''''''''''''''''''''''''''''''''''''''''''''''''''''''''",
"''''''''''''''''''''''''''''''''''''''''''''''''''''''''''''''''",
"''''''''''''''''''''''''''''''''''''''''''''''''''''''''''''''''",
"''''''''''''''''''''''''''''''''''''''''''''''''''''''''''''''''",
"''''''''''''''''''''''''''''''''''''''''''''''''''''''''''''''''",
"''''''''''''''''''''''''''''''''''''''''''''''''''''''''''''''''",
"''''''''''''''''''''''''''''''''''''''''''''''''''''''''''''''''",
"''''''''''''''''''''''''''''''''''''''''''''''''''''''''''''''''",
"''''''''''''''''''''''''''''''''''''''''''''''''''''''''''''''''",
"''''''''''''''''''''''''''''''''''''''''''''''''''''''''''''''''",
"''''''''''''''''''''''''''''''''''''''''''''''''''''''''''''''''",
"''''''''''''''''''''''''''''''''''''''''''''''''''''''''''''''''",
"''''''''''''''''''''''''''''''''''''''''''''''''''''''''''''''''",
"''''''''''''''''''''''''''''''''''''''''''''''''''''''''''''''''",
"''''''''''''''''''''''''''''''''''''''''''''''''''''''''''''''''",
"''''''''''''''''''''''''''''''''''''''''''''''''''''''''''''''''",
"''''''''''''''''''''''''''''''''''''''''''''''''''''''''''''''''",
"''''''''''''''''''''''''''''''''''''''''''''''''''''''''''''''''",
"''''''''''''''''''''''''''''''''''''''''''''''''''''''''''''''''",
"''''''''''''''''''''''''''''''''''''''''''''''''''''''''''''''''",
"''''''''''''''''''''''''''''''''''''''''''''''''''''''''''''''''",
"''''''''''''''''''''''''''''''''''''''''''''''''''''''''''''''''",
"''''''''''''''''''''''''''''''''''''''''''''''''''''''''''''''''",
"''''''''''''''''''''''''''''''''''''''''''''''''''''''''''''''''",
"''''''''''''''''''''''''''''''''''''''''''''''''''''''''''''''''",
"''''''''''''''''''''''''''''''''''''''''''''''''''''''''''''''''",
"''''''''''''''''''''''''''''''''''''''''''''''''''''''''''''''''",
"''''''''''''''''''''''''''''''''''''''''''''''''''''''''''''''''",
"''''''''''''''''''''''''''''''''''''''''''''''''''''''''''''''''",
"''''''''''''''''''''''''''''''''''''''''''''''''''''''''''''''''",
"''''''''''''''''''''''''''''''''''''''''''''''''''''''''''''''''",
"''''''''''''''''''''''''''''''''''''''''''''''''''''''''''''''''",
"''''''''''''''''''''''''''''''''''''''''''''''''''''''''''''''''",
"''''''''''''''''''''''''''''''''''''''''''''''''''''''''''''''''",
"''''''''''''''''''''''''''''''''''''''''''''''''''''''''''''''''",
"''''''''''''''''''''''''''''''''''''''''''''''''''''''''''''''''",
"''''''''''''''''''''''''''''''''''''''''''''''''''''''''''''''''",
"''''''''''''''''''''''''''''''''''''''''''''''''''''''''''''''''",
"''''''''''''''''''''''''''''''''''''''''''''''''''''''''''''''''",
"''''''''''''''''''''''''''''''''''''''''''''''''''''''''''''''''",
"''''''''''''''''''''''''''''''''''''''''''''''''''''''''''''''''"
};
