/* XPM */
static char *result[] = {
/* columns rows colors chars-per-pixel */
"64 64 80 1 ",
"  c black",
". c #010101",
"X c #020202",
"o c gray5",
"O c #0E0E0E",
"+ c gray9",
"@ c #1D1D1B",
"# c gray11",
"$ c #1D1D1D",
"% c #222222",
"& c #232323",
"* c gray15",
"= c #272727",
"- c #2F2F2F",
"; c #3C3C3C",
": c gray24",
"> c #3E3E3E",
", c #474745",
"< c #484846",
"1 c gray32",
"2 c #555554",
"3 c #565656",
"4 c gray36",
"5 c #606060",
"6 c gray39",
"7 c #656565",
"8 c #686868",
"9 c gray42",
"0 c #6C6C6C",
"q c #717171",
"w c gray45",
"e c gray46",
"r c #767676",
"t c #777777",
"y c gray47",
"u c #7E7E7E",
"i c #818181",
"p c gray52",
"a c #868686",
"s c #898989",
"d c #8B8B8B",
"f c gray56",
"g c #959595",
"h c #9B9B9B",
"j c #9F9F9F",
"k c #AAAAAA",
"l c #ACACAC",
"z c #AEAEAE",
"x c gray70",
"c c #B7B7B7",
"v c #BBBBBB",
"b c #BCBCBC",
"n c gray74",
"m c #C6C6C6",
"M c #C7C7C6",
"N c gray78",
"B c gray79",
"V c #CACACA",
"C c #CECECE",
"Z c #D0D0D0",
"A c LightGray",
"S c gray83",
"D c gray88",
"F c #E2E2E2",
"G c gray90",
"H c #E6E6E6",
"J c #EAEAEA",
"K c gray92",
"L c gray93",
"P c #EFEFEF",
"I c #F1F1F1",
"U c gray95",
"Y c gray96",
"T c #F6F6F6",
"R c gray97",
"E c #F9F9F9",
"W c #FBFBFB",
"Q c #FDFDFD",
"! c #FEFEFE",
"~ c white",
/* pixels */
"@,222222222222222222222222222222222222222222222222222222222222<@",
"@m~~~~~~~~~~~~~~~~~~~~~~~~~~~~~~~~~~~~~~~~~~~~~~~~~~~~~~~~~~~~M@",
"@m~~~~~~~~~~~~~~~~~~~~~~~~~~~~~~~~~~~~~~~~~~~~~~~~~~~~~~~~~~~~M@",
"@m~~~~~~~~~~~~~~~~~~~~~~~~~~~~~~~~~~~~~~~~~~~~~~~~~~~~~~~~~~~~M@",
"@m~~~~~~~~~~~~~~~~~~~~~~~~~~~~~~~~~~~~~~~~~~~~~~~~~~~~~~~~~~~~M@",
"@m~~~~~~~~~~~~~~~~~~~~~~~~~~~~~~~~~~~~~~~~~~~~~~~~~~~~~~~~~~~~M@",
"@m~~~~~~~~~~~~~~~~~~~~~~~~~~~~~~~~~~~~~~~~~~~~~~~~~~~~~~~~~~~~M@",
"@m~~~~~~~~~~~~~~~~~~~~~~~~~~~~~~~~~~~~~~LFFFFFFF~~~~~~~~~~~~~~M@",
"@m~~~~~~~~~~~~~~~~~~~~~~~~~~~~~~~~~~~~~!8......X!~~~~~~~~~~~~~M@",
"@m~~~~~~~~~~~~~~~~~~~~~~~~~~~~~~~~~~~~~!8      .!~~~~~~~~~~~~~M@",
"@m~~~~~~~~B-------b~~~~~~~~~~~~~~~~~~~~!8      .!~~~~~~~~~~~~~M@",
"@m~~~~~~~~n      .l~~~~~~~~~~~~~~~~~~~~!8      .!~~~~~~~~~~~~~M@",
"@m~~~~~~~~n      .l~~~~~~~~~~~~~~~~~~~~!8      .!~~~~~~~~~~~~~M@",
"@m~~~~~~~~n      .l~~~~~~~~~~~~~~~~~~~~!8      .!~~~~~~~~~~~~~M@",
"@m~~~~~~~~n      .l~~~~~~~~~~~~~~~~~~~~!8      .!~~~~~~~~~~~~~M@",
"@m~~~~~~~~n      .l~~~~~~~~~~~~~~~~~~~~!8      .!~~~~~~~~~~~~~M@",
"@m~~~~~~~~n      .l~~~~~~~~~~~~~~~~~~~~!8      .!~~~~~~~~~~~~~M@",
"@m~~~~~~~~n      .l~~~~~~~~~~~~~~~~~~~~!8      .!~~~~~~~~~~~~~M@",
"@m~~~~~~~~n      .l~~~~~~~~~~~~~~~~~~~~!8       ;>>>>>c~~~~~~~M@",
"@m~~~~~~~~n      .l~~~~~~~~~~~~~~~~~~~~!8            .a~~~~~~~M@",
"@m~~~~~~~~n      .l~~~~~~~~~~~~~~~~~~~~!8            .p~~~~~~~M@",
"@m~~~~~~~~n      .l~~~~~~~~~~~~~~~~~~~~!8            .p~~~~~~~M@",
"@m~~~~~~~~n      .l~~~~~~~~~~~~~~~~~~~~!8            .p~~~~~~~M@",
"@m~~~~~~~~n      .l~~~~~~~~~~~~~~~~~~~~!8            .p~~~~~~~M@",
"@m~~~~~~~~n      .l~~~~~~~~~~~~~~~~~~~~!8       errrrrv~~~~~~~M@",
"@m~~~~~~~~n      .l~~~~~~~~~~~~~IZzd9H~!8      .Q!!!!!~~~~~~~~M@",
"@m~~~~~~~~n      .l~~~ELDSNls7>O.....b~!8      .!~~~~~~~~~~~~~M@",
"@m~~~~~~~~n       $=+........       .h~!8      .!~~~~~~~~~~~~~M@",
"@m~~~~~~~~n                          y~!8      .!~~~~~~~~~~~~~M@",
"@m~~~~~~~~n                          1~!8      .!~~~~~~~~~~~~~M@",
"@m~~~~~~~~n                          =~!8      .!~~~~~~~~~~~~~M@",
"@m~~~~~~~~n                         *6~!8      .!~~~~~~~~~~~~~M@",
"@m~~~~~~~~n                  #:4ikAR~~~!8      .!~~~~~~~~~~~~~M@",
"@m~~~~~~~~P6333350tidgjkxnVGW~~~~~~~~~~!8      .!~~~~~~~~~~~~~M@",
"@m~~~~~~~~~~~~~~~~~~~~~~~~~~~~~~~~~~~~~!8      .!~~~~~~~~~~~~~M@",
"@m~~~~~~~~~~~~~~~~~~~~~~~~~~~~~~~~~~~~~!8      &~~~~~~~~~~~~~~M@",
"@m~~~~~~~~~~~~~~~~~~~~~~~~~~~~~~~~~~~~~~UJJJJJJT~~~~~~~~~~~~~~M@",
"@m~~~~~~~~~~~~~YCCCCCCCCCCCCCCCCCCCCCCCCCCCCCCCC~~~~~~~~~~~~~~M@",
"@m~~~~~~~~~~~~~w                               .!~~~~~~~~~~~~~M@",
"@m~~~~~~~~~~~~~q                               .!~~~~~~~~~~~~~M@",
"@m~~~~~~~~~~~~~q                               .!~~~~~~~~~~~~~M@",
"@m~~~~~~~~~~~~~q                               .!~~~~~~~~~~~~~M@",
"@m~~~~~~~~~~~~~q                               .!~~~~~~~~~~~~~M@",
"@m~~~~~~~~~~~~~q       %%%%%%%%%%%%%%%%%o      .!~~~~~~~~~~~~~M@",
"@m~~~~~~~~~~~~~q      o~~~~~~~~~~~~~~~~~f      .!~~~~~~~~~~~~~M@",
"@m~~~~~~~~~~~~~q      o~~~~~~~~~~~~~~~~~f      .!~~~~~~~~~~~~~M@",
"@m~~~~~~~~~~~~~q      o~~~~~~~~~~~~~~~~~f      .!~~~~~~~~~~~~~M@",
"@m~~~~~~~~~~~~~q      o~~~~~~~~~~~~~~~~~f      .!~~~~~~~~~~~~~M@",
"@m~~~~~~~~~~~~~q      o~~~~~~~~~~~~~~~~~f      .!~~~~~~~~~~~~~M@",
"@m~~~~~~~~~~~~~q      o~~~~~~~~~~~~~~~~~f      .!~~~~~~~~~~~~~M@",
"@m~~~~~~~~~~~~~q      oKKKKKKKKKKKKKKKKKy      .!~~~~~~~~~~~~~M@",
"@m~~~~~~~~~~~~~q                               .!~~~~~~~~~~~~~M@",
"@m~~~~~~~~~~~~~q                               .!~~~~~~~~~~~~~M@",
"@m~~~~~~~~~~~~~q                               .!~~~~~~~~~~~~~M@",
"@m~~~~~~~~~~~~~q                               .!~~~~~~~~~~~~~M@",
"@m~~~~~~~~~~~~~q                               .!~~~~~~~~~~~~~M@",
"@m~~~~~~~~~~~~~u                               +~~~~~~~~~~~~~~M@",
"@m~~~~~~~~~~~~~~~~~~~~~~~~~~~~~~~~~~~~~~~~~~~~~~~~~~~~~~~~~~~~M@",
"@m~~~~~~~~~~~~~~~~~~~~~~~~~~~~~~~~~~~~~~~~~~~~~~~~~~~~~~~~~~~~M@",
"@m~~~~~~~~~~~~~~~~~~~~~~~~~~~~~~~~~~~~~~~~~~~~~~~~~~~~~~~~~~~~M@",
"@m~~~~~~~~~~~~~~~~~~~~~~~~~~~~~~~~~~~~~~~~~~~~~~~~~~~~~~~~~~~~M@",
"@m~~~~~~~~~~~~~~~~~~~~~~~~~~~~~~~~~~~~~~~~~~~~~~~~~~~~~~~~~~~~M@",
"@m~~~~~~~~~~~~~~~~~~~~~~~~~~~~~~~~~~~~~~~~~~~~~~~~~~~~~~~~~~~~M@",
"@,222222222222222222222222222222222222222222222222222222222222<@"
};
