/* XPM */
static char *result[] = {
/* columns rows colors chars-per-pixel */
"64 64 147 2 ",
"   c black",
".  c #010101",
"X  c #040404",
"o  c #070707",
"O  c #090909",
"+  c gray5",
"@  c #0E0E0E",
"#  c gray6",
"$  c #111111",
"%  c gray7",
"&  c #131313",
"*  c gray8",
"=  c #161616",
"-  c gray9",
";  c #191919",
":  c gray10",
">  c #1D1D1B",
",  c gray11",
"<  c gray12",
"1  c gray13",
"2  c #222222",
"3  c #232323",
"4  c #252525",
"5  c #282828",
"6  c #2A2A2A",
"7  c gray17",
"8  c gray18",
"9  c gray19",
"0  c #313131",
"q  c gray20",
"w  c #353535",
"e  c gray21",
"r  c gray23",
"t  c #3C3C3C",
"y  c gray25",
"u  c #414141",
"i  c gray26",
"p  c #434343",
"a  c #444444",
"s  c #474745",
"d  c #464646",
"f  c #484846",
"g  c #484848",
"h  c #494949",
"j  c gray29",
"k  c gray31",
"l  c #505050",
"z  c #515151",
"x  c gray32",
"c  c #535353",
"v  c gray33",
"b  c #555554",
"n  c #555555",
"m  c #565656",
"M  c #585858",
"N  c gray35",
"B  c #5F5F5F",
"V  c #656565",
"C  c #676767",
"Z  c gray42",
"A  c #6C6C6C",
"S  c gray43",
"D  c #727272",
"F  c gray45",
"G  c #767676",
"H  c #777777",
"J  c gray47",
"K  c #797979",
"L  c gray48",
"P  c gray49",
"I  c #7E7E7E",
"U  c #808080",
"Y  c #818181",
"T  c #838383",
"R  c gray52",
"E  c #868686",
"W  c gray53",
"Q  c #898989",
"!  c gray55",
"~  c #8D8D8D",
"^  c gray56",
"/  c gray59",
"(  c #989898",
")  c gray60",
"_  c #9A9A9A",
"`  c gray63",
"'  c #A4A4A4",
"]  c gray65",
"[  c #A7A7A7",
"{  c gray66",
"}  c #A9A9A9",
"|  c gray67",
" . c #AEAEAE",
".. c #AFAFAF",
"X. c gray69",
"o. c #B2B2B2",
"O. c gray70",
"+. c #B4B4B4",
"@. c gray71",
"#. c #B6B6B6",
"$. c gray73",
"%. c #BBBBBB",
"&. c #BCBCBC",
"*. c gray75",
"=. c #C1C1C1",
"-. c #C3C3C3",
";. c gray77",
":. c #C5C5C5",
">. c #C6C6C6",
",. c #C7C7C6",
"<. c #CBCBCB",
"1. c #CDCDCD",
"2. c #D2D2D2",
"3. c LightGray",
"4. c gray83",
"5. c #D5D5D5",
"6. c gray84",
"7. c #D8D8D8",
"8. c gray85",
"9. c gainsboro",
"0. c #DDDDDD",
"q. c #DFDFDF",
"w. c #E2E2E2",
"e. c gray89",
"r. c gray90",
"t. c #E6E6E6",
"y. c #E7E7E7",
"u. c gray91",
"i. c #E9E9E9",
"p. c #EAEAEA",
"a. c #ECECEC",
"s. c gray93",
"d. c #EEEEEE",
"f. c #EFEFEF",
"g. c #F1F1F1",
"h. c #F3F3F3",
"j. c #F4F4F4",
"k. c gray96",
"l. c #F6F6F6",
"z. c #F8F8F8",
"x. c #F9F9F9",
"c. c gray98",
"v. c #FBFBFB",
"b. c gray99",
"n. c #FDFDFD",
"m. c #FEFEFE",
"M. c white",
/* pixels */
"> s b b b b b b b b b b b b b b b b b b b b b b b b b b b b b b b b b b b b b b b b b b b b b b b b b b b b b b b b b b b b f > ",
"> >.M.M.M.M.M.M.M.M.M.M.M.M.M.M.M.M.M.M.M.M.M.M.M.M.M.M.M.M.M.M.M.M.M.M.M.M.M.M.M.M.M.M.M.M.M.M.M.M.M.M.M.M.M.M.M.M.M.M.M.M.,.> ",
"> >.M.M.M.M.M.M.M.M.M.M.M.M.M.M.M.M.M.M.M.M.M.M.M.M.M.M.M.M.M.M.M.M.M.M.M.M.M.M.M.M.M.M.M.M.M.M.M.M.M.M.M.M.M.M.M.M.M.M.M.M.,.> ",
"> >.M.M.M.M.M.M.M.M.M.M.M.M.M.M.M.M.M.M.M.M.M.M.M.M.M.M.M.M.M.M.M.M.M.M.M.M.M.M.M.M.M.M.M.M.M.M.M.M.M.M.M.M.M.M.M.M.M.M.M.M.,.> ",
"> >.M.M.M.M.M.M.M.M.M.M.M.M.M.M.M.M.M.M.M.M.M.M.M.M.M.M.M.M.M.M.M.M.M.M.M.M.M.M.M.M.M.M.M.M.M.M.M.M.M.M.M.M.M.M.M.M.M.M.M.M.,.> ",
"> >.M.M.M.M.M.M.M.M.M.M.M.M.M.M.M.M.M.M.M.M.M.M.M.M.M.M.M.M.M.M.M.M.M.M.M.M.M.M.M.M.M.M.M.M.M.M.M.M.M.M.M.M.M.M.M.M.M.M.M.M.,.> ",
"> >.M.M.M.M.M.M.M.M.M.M.M.M.M.M.M.M.M.M.M.M.M.M.M.M.M.M.M.M.M.M.M.M.M.M.M.M.M.M.M.M.M.M.M.M.M.M.M.M.M.M.M.M.M.M.M.M.M.M.M.M.,.> ",
"> >.M.M.M.M.M.M.M.M.M.M.M.M.M.M.M.M.M.M.M.M.M.M.M.M.M.M.M.M.M.M.M.M.M.M.M.M.M.M.M.M.l.q.5.5.5.5.5.5.f.m.M.M.M.M.M.M.M.M.M.M.,.> ",
"> >.M.M.M.M.M.M.M.M.M.M.M.M.M.M.M.M.M.M.M.M.M.M.M.M.M.M.M.M.M.M.M.M.M.M.M.M.M.M.M.M.1.t             U p.M.M.M.M.M.M.M.M.M.M.,.> ",
"> >.M.M.M.M.M.M.M.M.M.M.M.M.M.M.M.M.M.M.M.M.M.M.M.M.M.M.M.M.M.M.M.M.M.M.M.M.M.M.M.M.1.t             L y.M.M.M.M.M.M.M.M.M.M.,.> ",
"> >.M.M.M.M.M.M.M.M.M.M.M.M.M.M.M.M.M.M.M.M.M.M.M.M.M.M.M.M.M.M.M.M.M.M.M.M.M.M.M.M.1.t             L y.M.M.M.M.M.M.M.M.M.M.,.> ",
"> >.M.M.M.M.M.M.M.M.M.M.M.M.M.M.M.M.M.z.>...........X.6.z.M.M.M.M.M.M.M.M.M.M.M.M.M.1.t             L y.M.M.M.M.M.M.M.M.M.M.,.> ",
"> >.M.M.M.M.M.M.M.M.M.M.M.M.M.M.M.M.M.i.j .           v 4.M.M.M.M.M.M.M.M.M.M.M.M.M.1.t             L y.M.M.M.M.M.M.M.M.M.M.,.> ",
"> >.M.M.M.M.M.M.M.M.M.M.M.M.M.M.M.M.M.i.j             v 4.M.M.M.M.M.M.M.M.M.M.M.M.M.1.t             L y.M.M.M.M.M.M.M.M.M.M.,.> ",
"> >.M.M.M.M.M.M.M.M.M.M.M.M.M.M.M.M.M.i.j             v 4.M.M.M.M.M.M.M.M.M.M.M.M.M.1.t             L y.M.M.M.M.M.M.M.M.M.M.,.> ",
"> >.M.M.M.M.M.M.M.M.M.M.M.M.M.M.M.M.M.i.j             v 4.M.M.M.M.M.M.M.M.M.M.M.M.M.1.t             L y.M.M.M.M.M.M.M.M.M.M.,.> ",
"> >.M.M.M.M.M.M.M.M.M.M.M.M.M.M.M.M.M.i.j             v 4.M.M.M.M.M.M.M.M.M.M.M.M.M.1.t             L y.M.M.M.M.M.M.M.M.M.M.,.> ",
"> >.M.M.M.M.M.M.M.M.M.M.M.M.M.M.M.M.M.i.j             v 4.M.M.M.M.M.M.M.M.M.M.M.M.M.1.t             L y.M.M.M.M.M.M.M.M.M.M.,.> ",
"> >.M.M.M.M.M.M.M.M.M.M.M.M.M.M.M.M.M.u.h             v 4.M.M.M.M.M.M.M.M.M.M.M.M.M.1.t             L y.M.M.M.M.M.M.M.M.M.M.,.> ",
"> >.M.M.M.M.M.M.M.M.M.M.M.M.M.M.M.M.M.0.a             d 1.M.M.M.M.M.M.M.M.M.M.M.M.M.1.t             L y.M.M.M.M.M.M.M.M.M.M.,.> ",
"> >.M.M.M.M.M.M.M.M.M.M.M.M.M.M.M.M.M.1.t             w :.M.M.M.M.M.M.M.M.M.M.M.M.M.1.t             L y.M.M.M.M.M.M.M.M.M.M.,.> ",
"> >.M.M.M.M.M.M.M.M.M.M.M.M.M.M.M.M.M.&.q             1 %.M.M.M.M.M.M.M.M.M.M.M.M.M.1.t             L y.M.M.M.M.M.M.M.M.M.M.,.> ",
"> >.M.M.M.M.M.M.M.M.M.M.M.M.M.M.M.M.M.| 7             # o.M.M.M.M.M.M.M.M.M.M.M.M.M.1.t             L y.M.M.M.M.M.M.M.M.M.M.,.> ",
"> >.M.M.M.M.M.M.M.M.M.M.M.M.M.M.M.M.M.) 2               [ n.M.M.M.` z y y y y y y y 0 @             L y.M.M.M.M.M.M.M.M.M.M.,.> ",
"> >.M.M.M.M.M.M.M.M.M.M.M.M.M.M.M.M.M.W ;               ( l.M.M.M.Y =                               L y.M.M.M.M.M.M.M.M.M.M.,.> ",
"> >.M.M.M.M.M.M.M.M.M.M.M.M.M.M.M.M.M.S +               R a.M.M.M.Y =                               L y.M.M.M.M.M.M.M.M.M.M.,.> ",
"> >.M.M.M.M.M.M.M.M.M.M.M.M.M.M.M.M.p.j                 n 5.M.M.M.Y =                               L y.M.M.M.M.M.M.M.M.M.M.,.> ",
"> >.M.M.M.M.M.M.M.M.M.M.M.M.M.M.M.M.+.9                 - #.M.M.M.Y =                               L y.M.M.M.M.M.M.M.M.M.M.,.> ",
"> >.M.M.M.M.M.M.M.M.M.M.M.M.M.M.M.M.J %                   Q d.M.M.T -                               L y.M.M.M.M.M.M.M.M.M.M.,.> ",
"> >.M.M.M.M.M.M.M.M.M.M.M.M.M.M.M.u.h                     x 3.M.M.w.' ~ ~ ~ ~ ~ ~ ~ M *             L y.M.M.M.M.M.M.M.M.M.M.,.> ",
"> >.M.M.M.M.M.M.M.M.M.M.M.M.M.M.M.o.8                     & O.M.M.M.M.M.M.M.M.M.M.M.1.t             L y.M.M.M.M.M.M.M.M.M.M.,.> ",
"> >.M.M.M.M.M.M.M.M.M.M.M.M.M.M.M.G $                       E s.M.M.M.M.M.M.M.M.M.M.1.t             L y.M.M.M.M.M.M.M.M.M.M.,.> ",
"> >.M.M.M.M.M.M.M.M.M.M.M.M.M.M.7.u                         0 -.M.M.M.M.M.M.M.M.M.M.1.t             L y.M.M.M.M.M.M.M.M.M.M.,.> ",
"> >.M.M.M.M.M.M.M.M.M.M.M.M.M.n.H %                           J t.M.M.M.M.M.M.M.M.M.1.t             L y.M.M.M.M.M.M.M.M.M.M.,.> ",
"> >.M.M.M.M.M.M.M.M.M.M.M.M.M.*.w             < #             -  .v.M.M.M.M.M.M.M.M.1.t             L y.M.M.M.M.M.M.M.M.M.M.,.> ",
"> >.M.M.M.M.M.M.M.M.M.M.M.M.u.x X             H K <             e ;.m.M.M.M.M.M.M.M.1.t             L y.M.M.M.M.M.M.M.M.M.M.,.> ",
"> >.M.M.M.M.M.M.M.M.M.M.M.l.A @             ; @.8.i               c 4.M.M.M.M.M.M.M.1.t             L y.M.M.M.M.M.M.M.M.M.M.,.> ",
"> >.M.M.M.M.M.M.M.M.M.M.v.W :               D e.M.J %               n 3.m.M.M.M.M.M.1.t             L y.M.M.M.M.M.M.M.M.M.M.,.> ",
"> >.M.M.M.M.M.M.M.M.M.j.I -               , #.m.M.0.a                 r =.b.M.M.M.M.1.t             L y.M.M.M.M.M.M.M.M.M.M.,.> ",
"> >.M.M.M.M.M.M.M.M.u.V @                 J t.M.M.M.] 5                 ; W y.M.M.M.1.t             L y.M.M.M.M.M.M.M.M.M.M.,.> ",
"> >.M.M.M.M.M.M.z.{ 7                   i <.M.M.M.M.x.Z +                   0 #.x.M.1.t             L y.M.M.M.M.M.M.M.M.M.M.,.> ",
"> >.M.M.M.M.M.d.B O                   -  .v.M.M.M.M.M.9.p                   O ` z.M.1.t             L y.M.M.M.M.M.M.M.M.M.M.,.> ",
"> >.M.M.M.M.M.x.F $                   Q d.M.M.M.M.M.M.M.6.y                 L y.M.M.1.t             L y.M.M.M.M.M.M.M.M.M.M.,.> ",
"> >.M.M.M.M.M.M.u.x X               P u.M.M.M.M.M.M.M.M.M.5.y             l 2.M.M.M.1.t             L y.M.M.M.M.M.M.M.M.M.M.,.> ",
"> >.M.M.M.M.M.M.M.1.t             Y p.M.M.M.M.M.M.M.M.M.M.M.6.k o       4 $.n.M.M.M.1.t             L y.M.M.M.M.M.M.M.M.M.M.,.> ",
"> >.M.M.M.M.M.M.M.M.} 6       # ! a.M.M.M.M.M.M.M.M.M.M.M.M.M.j./ 3   O _ k.M.M.M.M.1.t             L y.M.M.M.M.M.M.M.M.M.M.,.> ",
"> >.M.M.M.M.M.M.M.M.b.Y -   g ;.c.M.M.M.M.M.M.M.M.M.M.M.M.M.M.M.M.7.C Q r.M.M.M.M.M.1.t             L y.M.M.M.M.M.M.M.M.M.M.,.> ",
"> >.M.M.M.M.M.M.M.M.M.g.Q ` a.M.M.M.M.M.M.M.M.M.M.M.M.M.M.M.M.M.M.M.M.M.M.M.M.M.M.M.1.t             L y.M.M.M.M.M.M.M.M.M.M.,.> ",
"> >.M.M.M.M.M.M.M.M.M.M.M.M.M.M.M.M.M.M.M.M.M.M.M.M.M.M.M.M.M.M.M.M.M.M.M.M.M.M.M.M.1.t             L y.M.M.M.M.M.M.M.M.M.M.,.> ",
"> >.M.M.M.M.M.M.M.M.M.M.M.M.M.M.M.M.M.M.M.M.M.M.M.M.M.M.M.M.M.M.M.M.M.M.M.M.M.M.M.M.1.t             L y.M.M.M.M.M.M.M.M.M.M.,.> ",
"> >.M.M.M.M.M.M.M.M.M.M.M.M.M.M.M.M.M.M.M.M.M.M.M.M.M.M.M.M.M.M.M.M.M.M.M.M.M.M.M.M.1.t             L y.M.M.M.M.M.M.M.M.M.M.,.> ",
"> >.M.M.M.M.M.M.M.M.M.M.M.M.M.M.M.M.M.M.M.M.M.M.M.M.M.M.M.M.M.M.M.M.M.M.M.M.M.M.M.M.1.t             L y.M.M.M.M.M.M.M.M.M.M.,.> ",
"> >.M.M.M.M.M.M.M.M.M.M.M.M.M.M.M.M.M.M.M.M.M.M.M.M.M.M.M.M.M.M.M.M.M.M.M.M.M.M.M.M.1.t             L y.M.M.M.M.M.M.M.M.M.M.,.> ",
"> >.M.M.M.M.M.M.M.M.M.M.M.M.M.M.M.M.M.M.M.M.M.M.M.M.M.M.M.M.M.M.M.M.M.M.M.M.M.M.M.M.1.t             L y.M.M.M.M.M.M.M.M.M.M.,.> ",
"> >.M.M.M.M.M.M.M.M.M.M.M.M.M.M.M.M.M.M.M.M.M.M.M.M.M.M.M.M.M.M.M.M.M.M.M.M.M.M.M.M.1.t             L y.M.M.M.M.M.M.M.M.M.M.,.> ",
"> >.M.M.M.M.M.M.M.M.M.M.M.M.M.M.M.M.M.M.M.M.M.M.M.M.M.M.M.M.M.M.M.M.M.M.M.M.M.M.M.M.1.t             L y.M.M.M.M.M.M.M.M.M.M.,.> ",
"> >.M.M.M.M.M.M.M.M.M.M.M.M.M.M.M.M.M.M.M.M.M.M.M.M.M.M.M.M.M.M.M.M.M.M.M.M.M.M.M.M.1.t             L y.M.M.M.M.M.M.M.M.M.M.,.> ",
"> >.M.M.M.M.M.M.M.M.M.M.M.M.M.M.M.M.M.M.M.M.M.M.M.M.M.M.M.M.M.M.M.M.M.M.M.M.M.M.M.M.h.^ N m m m m m ] d.M.M.M.M.M.M.M.M.M.M.,.> ",
"> >.M.M.M.M.M.M.M.M.M.M.M.M.M.M.M.M.M.M.M.M.M.M.M.M.M.M.M.M.M.M.M.M.M.M.M.M.M.M.M.M.M.M.M.M.M.M.M.M.M.M.M.M.M.M.M.M.M.M.M.M.,.> ",
"> >.M.M.M.M.M.M.M.M.M.M.M.M.M.M.M.M.M.M.M.M.M.M.M.M.M.M.M.M.M.M.M.M.M.M.M.M.M.M.M.M.M.M.M.M.M.M.M.M.M.M.M.M.M.M.M.M.M.M.M.M.,.> ",
"> >.M.M.M.M.M.M.M.M.M.M.M.M.M.M.M.M.M.M.M.M.M.M.M.M.M.M.M.M.M.M.M.M.M.M.M.M.M.M.M.M.M.M.M.M.M.M.M.M.M.M.M.M.M.M.M.M.M.M.M.M.,.> ",
"> >.M.M.M.M.M.M.M.M.M.M.M.M.M.M.M.M.M.M.M.M.M.M.M.M.M.M.M.M.M.M.M.M.M.M.M.M.M.M.M.M.M.M.M.M.M.M.M.M.M.M.M.M.M.M.M.M.M.M.M.M.,.> ",
"> >.M.M.M.M.M.M.M.M.M.M.M.M.M.M.M.M.M.M.M.M.M.M.M.M.M.M.M.M.M.M.M.M.M.M.M.M.M.M.M.M.M.M.M.M.M.M.M.M.M.M.M.M.M.M.M.M.M.M.M.M.,.> ",
"> s b b b b b b b b b b b b b b b b b b b b b b b b b b b b b b b b b b b b b b b b b b b b b b b b b b b b b b b b b b b b f > "
};
